<?xml version="1.0" encoding="UTF-8" standalone="no"?>
<!-- Created with Inkscape (http://www.inkscape.org/) -->
<svg
   xmlns:dc="http://purl.org/dc/elements/1.1/"
   xmlns:cc="http://creativecommons.org/ns#"
   xmlns:rdf="http://www.w3.org/1999/02/22-rdf-syntax-ns#"
   xmlns:svg="http://www.w3.org/2000/svg"
   xmlns="http://www.w3.org/2000/svg"
   xmlns:xlink="http://www.w3.org/1999/xlink"
   xmlns:sodipodi="http://sodipodi.sourceforge.net/DTD/sodipodi-0.dtd"
   xmlns:inkscape="http://www.inkscape.org/namespaces/inkscape"
   inkscape:export-ydpi="90.000000"
   inkscape:export-xdpi="90.000000"
   inkscape:export-filename="/home/jimmac/Desktop/wi-fi.png"
   width="32"
   height="32"
   id="svg11300"
   sodipodi:version="0.32"
   inkscape:version="0.45+devel"
   sodipodi:docbase="/home/patrick/Projects/Beryl/svn/beryl/trunk/beryl-settings/images"
   sodipodi:docname="plugins-desktops.svg"
   inkscape:output_extension="org.inkscape.output.svg.inkscape"
   version="1.0">
  <defs
     id="defs3">
    <linearGradient
       id="linearGradient4376">
      <stop
         style="stop-color:#babdb6;stop-opacity:1"
         offset="0"
         id="stop4378" />
      <stop
         style="stop-color:#eeeeec;stop-opacity:1"
         offset="1"
         id="stop4380" />
    </linearGradient>
    <linearGradient
       id="linearGradient3678"
       inkscape:collect="always">
      <stop
         id="stop3680"
         offset="0"
         style="stop-color:white;stop-opacity:1;" />
      <stop
         id="stop3682"
         offset="1"
         style="stop-color:white;stop-opacity:0;" />
    </linearGradient>
    <linearGradient
       id="linearGradient5502"
       inkscape:collect="always">
      <stop
         id="stop5504"
         offset="0"
         style="stop-color:white;stop-opacity:1;" />
      <stop
         id="stop5506"
         offset="1"
         style="stop-color:white;stop-opacity:0;" />
    </linearGradient>
    <linearGradient
       id="linearGradient5526"
       inkscape:collect="always">
      <stop
         id="stop5528"
         offset="0"
         style="stop-color:white;stop-opacity:1;" />
      <stop
         id="stop5530"
         offset="1"
         style="stop-color:white;stop-opacity:0;" />
    </linearGradient>
    <linearGradient
       id="linearGradient5534"
       inkscape:collect="always">
      <stop
         id="stop5536"
         offset="0"
         style="stop-color:white;stop-opacity:1;" />
      <stop
         id="stop5538"
         offset="1"
         style="stop-color:white;stop-opacity:0;" />
    </linearGradient>
    <linearGradient
       id="linearGradient2853">
      <stop
         id="stop2855"
         offset="0"
         style="stop-color:#416797;stop-opacity:1;" />
      <stop
         id="stop2857"
         offset="1"
         style="stop-color:#a7bed8;stop-opacity:1;" />
    </linearGradient>
    <linearGradient
       inkscape:collect="always"
       xlink:href="#linearGradient5502"
       id="linearGradient8286"
       gradientUnits="userSpaceOnUse"
       gradientTransform="matrix(0.6363876,0,0,-0.7095286,9.08371e-2,32.6878)"
       x1="3.870008"
       y1="37.710594"
       x2="5.3180737"
       y2="33.51659" />
    <linearGradient
       inkscape:collect="always"
       xlink:href="#linearGradient5534"
       id="linearGradient8289"
       gradientUnits="userSpaceOnUse"
       gradientTransform="matrix(0,-0.7282899,0.6968062,0,3.0031297,28.962314)"
       x1="7.31251"
       y1="37.000011"
       x2="3.93751"
       y2="37.875011" />
    <linearGradient
       inkscape:collect="always"
       xlink:href="#linearGradient4376"
       id="linearGradient8292"
       gradientUnits="userSpaceOnUse"
       gradientTransform="matrix(0.6970464,0,0,0.7282899,-0.5150575,-1.2508536)"
       x1="43.75"
       y1="39.187508"
       x2="42.375"
       y2="33.500008" />
    <linearGradient
       inkscape:collect="always"
       xlink:href="#linearGradient5502"
       id="linearGradient8295"
       gradientUnits="userSpaceOnUse"
       gradientTransform="matrix(-0.6251815,0,0,-0.6541332,31.875546,30.511929)"
       x1="5.5493865"
       y1="37.843178"
       x2="3.8596659"
       y2="33.251427" />
    <linearGradient
       inkscape:collect="always"
       xlink:href="#linearGradient4376"
       id="linearGradient8298"
       gradientUnits="userSpaceOnUse"
       gradientTransform="matrix(0.6988542,0,0,0.7282899,-0.5920886,-1.6810956)"
       x1="41.375"
       y1="14.75"
       x2="42.0625"
       y2="9.875" />
    <linearGradient
       inkscape:collect="always"
       xlink:href="#linearGradient4376"
       id="linearGradient8301"
       gradientUnits="userSpaceOnUse"
       gradientTransform="matrix(0.7099133,0,0,0.7282899,-0.9846965,-1.6808516)"
       x1="7.5"
       y1="15.75"
       x2="6.3125"
       y2="10" />
    <linearGradient
       inkscape:collect="always"
       xlink:href="#linearGradient5526"
       id="linearGradient8307"
       gradientUnits="userSpaceOnUse"
       gradientTransform="matrix(0.7099133,0,0,0.7282899,-0.2435332,-1.2664786)"
       x1="3.875"
       y1="33.875"
       x2="4.1875"
       y2="39.375" />
    <linearGradient
       inkscape:collect="always"
       xlink:href="#linearGradient4376"
       id="linearGradient8310"
       gradientUnits="userSpaceOnUse"
       gradientTransform="matrix(0.7099133,0,0,0.7310473,-0.9846965,-1.3600646)"
       x1="9.562501"
       y1="39.312511"
       x2="7.5000014"
       y2="34.187511" />
    <linearGradient
       inkscape:collect="always"
       xlink:href="#linearGradient3678"
       id="linearGradient8313"
       gradientUnits="userSpaceOnUse"
       gradientTransform="matrix(0.6760611,0,0,0.7039813,0.4478639,-0.8862376)"
       x1="4.625"
       y1="-7.625"
       x2="23.875"
       y2="47.75" />
    <linearGradient
       inkscape:collect="always"
       xlink:href="#linearGradient2853"
       id="linearGradient8319"
       gradientUnits="userSpaceOnUse"
       gradientTransform="matrix(0.6928211,0,0,0.7245164,38.054945,-0.5967516)"
       x1="-31.831854"
       y1="7.9310017"
       x2="-31.831854"
       y2="37.930984" />
    <radialGradient
       r="5.5790009"
       fy="2.8720422"
       fx="15.252953"
       cy="2.8720422"
       cx="15.252953"
       gradientTransform="matrix(-2.6934876e-6,0.6906818,-0.7025735,-1.3794102e-7,21.993629,-1.2490346)"
       gradientUnits="userSpaceOnUse"
       id="radialGradient8767"
       xlink:href="#linearGradient2277"
       inkscape:collect="always" />
    <radialGradient
       r="12.3125"
       fy="-22.655226"
       fx="14.487679"
       cy="-22.655226"
       cx="14.487679"
       gradientTransform="matrix(-0.3450886,2.1506619,-1.3857715,-0.229431,-9.121993,-60.756663)"
       gradientUnits="userSpaceOnUse"
       id="radialGradient8765"
       xlink:href="#linearGradient8754"
       inkscape:collect="always" />
    <radialGradient
       r="14.75"
       fy="10.241054"
       fx="56.704376"
       cy="10.241054"
       cx="56.704376"
       gradientTransform="matrix(0.4493264,0.1548708,-0.2037122,0.5859064,-14.587751,-0.3600312)"
       gradientUnits="userSpaceOnUse"
       id="radialGradient8752"
       xlink:href="#linearGradient8440"
       inkscape:collect="always" />
    <radialGradient
       r="38.158695"
       fy="7.2678967"
       fx="8.1435566"
       cy="7.2678967"
       cx="8.1435566"
       gradientTransform="matrix(0.9767883,0,0,1.0291075,3.3156277,0.9781569)"
       gradientUnits="userSpaceOnUse"
       id="radialGradient7978"
       xlink:href="#linearGradient15662"
       inkscape:collect="always" />
    <radialGradient
       r="37.751713"
       fy="3.7561285"
       fx="8.824419"
       cy="3.7561285"
       cx="8.824419"
       gradientTransform="matrix(0.9988117,0,0,1.0519401,2.8016713,0.4602236)"
       gradientUnits="userSpaceOnUse"
       id="radialGradient7976"
       xlink:href="#linearGradient269"
       inkscape:collect="always" />
    <radialGradient
       r="86.70845"
       fy="35.736916"
       fx="33.966679"
       cy="35.736916"
       cx="33.966679"
       gradientTransform="matrix(0.9907871,0,0,1.0604597,-0.6576517,-0.1982243)"
       gradientUnits="userSpaceOnUse"
       id="radialGradient7974"
       xlink:href="#linearGradient259"
       inkscape:collect="always" />
    <linearGradient
       y2="38.070381"
       x2="34.170048"
       y1="36.921333"
       x1="33.396004"
       gradientTransform="matrix(-2.48131e-2,-0.756771,0.756567,-2.481981e-2,8.221918,36.1682)"
       gradientUnits="userSpaceOnUse"
       id="linearGradient7972"
       xlink:href="#linearGradient2251"
       inkscape:collect="always" />
    <radialGradient
       r="37.751713"
       fy="2.3667307"
       fx="31.863327"
       cy="2.3667307"
       cx="31.863327"
       gradientTransform="matrix(0.331735,0,0,0.353831,20.10526,9.5823)"
       gradientUnits="userSpaceOnUse"
       id="radialGradient7970"
       xlink:href="#linearGradient269"
       inkscape:collect="always" />
    <radialGradient
       r="86.70845"
       fy="14.9373"
       fx="30.653816"
       cy="14.9373"
       cx="30.653816"
       gradientTransform="matrix(0.148355,1.009137e-2,-1.104438e-2,0.162365,25.06011,12.81706)"
       gradientUnits="userSpaceOnUse"
       id="radialGradient7968"
       xlink:href="#linearGradient259"
       inkscape:collect="always" />
    <radialGradient
       r="4.2929163"
       fy="12.98915"
       fx="37.030354"
       cy="12.98915"
       cx="37.030354"
       gradientTransform="matrix(1.744653,0,0,1.283833,-26.58256,-3.478359)"
       gradientUnits="userSpaceOnUse"
       id="radialGradient7966"
       xlink:href="#linearGradient4790"
       inkscape:collect="always" />
    <linearGradient
       id="linearGradient8440">
      <stop
         style="stop-color:#edeeec;stop-opacity:1;"
         offset="0"
         id="stop8442" />
      <stop
         style="stop-color:#babdb6;stop-opacity:1;"
         offset="1"
         id="stop8444" />
    </linearGradient>
    <radialGradient
       r="25.312502"
       fy="0.49999759"
       fx="26.812502"
       cy="0.49999759"
       cx="26.812502"
       gradientTransform="matrix(1,0,0,7.4074073e-2,0,0.4629607)"
       gradientUnits="userSpaceOnUse"
       id="radialGradient4085"
       xlink:href="#linearGradient15837"
       inkscape:collect="always" />
    <linearGradient
       inkscape:collect="always"
       id="linearGradient15837">
      <stop
         style="stop-color:#000000;stop-opacity:1;"
         offset="0"
         id="stop15839" />
      <stop
         style="stop-color:#000000;stop-opacity:0;"
         offset="1"
         id="stop15841" />
    </linearGradient>
    <linearGradient
       y2="39.999443"
       x2="25.058096"
       y1="47.027729"
       x1="25.058096"
       gradientUnits="userSpaceOnUse"
       id="linearGradient2405"
       xlink:href="#linearGradient3702"
       inkscape:collect="always" />
    <radialGradient
       r="2.5"
       fy="43.5"
       fx="4.9929786"
       cy="43.5"
       cx="4.9929786"
       gradientTransform="matrix(2.003784,0,0,1.4,-20.01187,-104.4)"
       gradientUnits="userSpaceOnUse"
       id="radialGradient2403"
       xlink:href="#linearGradient3688"
       inkscape:collect="always" />
    <radialGradient
       r="2.5"
       fy="43.5"
       fx="4.9929786"
       cy="43.5"
       cx="4.9929786"
       gradientTransform="matrix(2.003784,0,0,1.4,27.98813,-17.4)"
       gradientUnits="userSpaceOnUse"
       id="radialGradient2401"
       xlink:href="#linearGradient3688"
       inkscape:collect="always" />
    <linearGradient
       id="linearGradient3702">
      <stop
         style="stop-color:black;stop-opacity:0;"
         offset="0"
         id="stop3704" />
      <stop
         id="stop3710"
         offset="0.5"
         style="stop-color:black;stop-opacity:1;" />
      <stop
         style="stop-color:black;stop-opacity:0;"
         offset="1"
         id="stop3706" />
    </linearGradient>
    <linearGradient
       inkscape:collect="always"
       id="linearGradient3688">
      <stop
         style="stop-color:black;stop-opacity:1;"
         offset="0"
         id="stop3690" />
      <stop
         style="stop-color:black;stop-opacity:0;"
         offset="1"
         id="stop8147" />
    </linearGradient>
    <linearGradient
       inkscape:collect="always"
       id="linearGradient4790">
      <stop
         style="stop-color:#000000;stop-opacity:1;"
         offset="0"
         id="stop4792" />
      <stop
         style="stop-color:#000000;stop-opacity:0;"
         offset="1"
         id="stop4794" />
    </linearGradient>
    <linearGradient
       inkscape:collect="always"
       id="linearGradient2251">
      <stop
         style="stop-color:#ffffff;stop-opacity:1;"
         offset="0"
         id="stop2253" />
      <stop
         style="stop-color:#ffffff;stop-opacity:0;"
         offset="1"
         id="stop2255" />
    </linearGradient>
    <linearGradient
       id="linearGradient15662">
      <stop
         id="stop15664"
         offset="0.0000000"
         style="stop-color:#ffffff;stop-opacity:1.0000000;" />
      <stop
         id="stop15666"
         offset="1.0000000"
         style="stop-color:#f8f8f8;stop-opacity:1.0000000;" />
    </linearGradient>
    <linearGradient
       id="linearGradient269">
      <stop
         id="stop270"
         offset="0.0000000"
         style="stop-color:#a3a3a3;stop-opacity:1.0000000;" />
      <stop
         id="stop271"
         offset="1"
         style="stop-color:#8a8a8a;stop-opacity:1;" />
    </linearGradient>
    <linearGradient
       id="linearGradient259">
      <stop
         id="stop260"
         offset="0.0000000"
         style="stop-color:#fafafa;stop-opacity:1.0000000;" />
      <stop
         id="stop261"
         offset="1.0000000"
         style="stop-color:#bbbbbb;stop-opacity:1.0000000;" />
    </linearGradient>
    <linearGradient
       id="linearGradient2277">
      <stop
         style="stop-color:#729fcf;stop-opacity:1"
         offset="0"
         id="stop2279" />
      <stop
         style="stop-color:#3465a4;stop-opacity:1"
         offset="1"
         id="stop2281" />
    </linearGradient>
    <linearGradient
       id="linearGradient8754">
      <stop
         id="stop8756"
         offset="0"
         style="stop-color:#729fcf;stop-opacity:1" />
      <stop
         id="stop8758"
         offset="1"
         style="stop-color:#3465a4;stop-opacity:1" />
    </linearGradient>
    <radialGradient
       inkscape:collect="always"
       xlink:href="#linearGradient8440"
       id="radialGradient8203"
       gradientUnits="userSpaceOnUse"
       gradientTransform="matrix(0.4416968,0.1568465,-0.2002531,0.593381,-11.992208,-0.1097034)"
       cx="56.704376"
       cy="10.241054"
       fx="56.704376"
       fy="10.241054"
       r="14.75" />
  </defs>
  <sodipodi:namedview
     stroke="#ef2929"
     fill="#eeeeec"
     id="base"
     pagecolor="#ffffff"
     bordercolor="#666666"
     borderopacity="0.25490196"
     inkscape:pageopacity="0.0"
     inkscape:pageshadow="2"
     inkscape:zoom="0.99999999"
     inkscape:cx="19.835098"
     inkscape:cy="24.058288"
     inkscape:current-layer="layer1"
     showgrid="false"
     inkscape:grid-bbox="true"
     inkscape:document-units="px"
     inkscape:showpageshadow="false"
     inkscape:window-width="906"
     inkscape:window-height="680"
     inkscape:window-x="95"
     inkscape:window-y="76"
     showguides="true"
     inkscape:guide-bbox="true">
    <inkscape:grid
       type="xygrid"
       id="grid7979"
       visible="true"
       enabled="true" />
  </sodipodi:namedview>
  <metadata
     id="metadata4">
    <rdf:RDF>
      <cc:Work
         rdf:about="">
        <dc:format>image/svg+xml</dc:format>
        <dc:type
           rdf:resource="http://purl.org/dc/dcmitype/StillImage" />
        <dc:creator>
          <cc:Agent>
            <dc:title>Patrick Niklaus</dc:title>
          </cc:Agent>
        </dc:creator>
        <dc:source />
        <cc:license
           rdf:resource="http://creativecommons.org/licenses/GPL/2.0/" />
        <dc:title>Zoom</dc:title>
        <dc:subject>
          <rdf:Bag />
        </dc:subject>
      </cc:Work>
      <cc:License
         rdf:about="http://creativecommons.org/licenses/GPL/2.0/">
        <cc:permits
           rdf:resource="http://web.resource.org/cc/Reproduction" />
        <cc:permits
           rdf:resource="http://web.resource.org/cc/Distribution" />
        <cc:requires
           rdf:resource="http://web.resource.org/cc/Notice" />
        <cc:permits
           rdf:resource="http://web.resource.org/cc/DerivativeWorks" />
        <cc:requires
           rdf:resource="http://web.resource.org/cc/ShareAlike" />
        <cc:requires
           rdf:resource="http://web.resource.org/cc/SourceCode" />
      </cc:License>
    </rdf:RDF>
  </metadata>
  <g
     id="layer1"
     inkscape:label="Layer 1"
     inkscape:groupmode="layer">
    <g
       id="layer6"
       inkscape:label="Shadow"
       transform="translate(-42.70823,29.563374)" />
    <g
       style="display:inline"
       inkscape:label="Base"
       id="g6461"
       transform="translate(-42.70823,29.563374)" />
    <g
       id="g2637"
       inkscape:label="base"
       style="display:inline"
       transform="translate(-54.97336,77.063364)" />
    <path
       d="M 2.5636065,5.2929004 C 2.3622688,5.2929004 2.2099134,5.4525434 2.2099134,5.6635084 L 2.2099134,10.852016 C 2.2099134,11.062982 2.3622688,11.222625 2.5636065,11.222624 L 2.9172995,10.852016 L 2.9172995,22.711485 L 2.5636065,22.340876 C 2.3622688,22.340876 2.2099134,22.500518 2.2099134,22.711485 L 2.2099134,27.529391 C 2.2099134,27.740357 2.3622688,27.9 2.5636065,27.9 L 7.5153098,27.9 C 7.7166473,27.9 7.869003,27.740358 7.869003,27.529391 L 7.5153098,27.529391 L 25.90735,27.529391 L 25.553657,27.529391 C 25.553657,27.740357 25.706012,27.9 25.90735,27.9 L 30.505359,27.9 C 30.706696,27.9 30.859051,27.740357 30.859052,27.529391 L 30.859052,22.711485 C 30.859052,22.500518 30.706698,22.340876 30.505359,22.340876 L 30.505359,22.711485 L 30.505359,10.852016 L 30.505359,11.222624 C 30.706696,11.222624 30.859052,11.062982 30.859052,10.852016 L 30.859052,5.6635084 C 30.859052,5.4525424 30.706698,5.2929004 30.505359,5.2929004 L 25.90735,5.2929004 C 25.706012,5.2929004 25.553658,5.4525414 25.553657,5.6635084 L 25.90735,6.0341174 L 7.5153098,6.0341174 L 7.869003,5.6635084 C 7.869003,5.4525424 7.7166473,5.2929004 7.5153098,5.2929004 L 2.5636065,5.2929004 z"
       id="path8196"
       style="opacity:0.2;fill:#000000;fill-opacity:1;fill-rule:nonzero;stroke:#000000;stroke-width:0.99999964;stroke-linecap:round;stroke-linejoin:round;marker:none;marker-start:none;marker-mid:none;marker-end:none;stroke-miterlimit:4;stroke-dasharray:none;stroke-dashoffset:1.20000057;stroke-opacity:1;visibility:visible;display:inline;overflow:visible" />
    <rect
       width="27.020008"
       height="21.010962"
       x="2.4911635"
       y="5.5116487"
       id="rect8198"
       style="fill:url(#linearGradient8319);fill-opacity:1;fill-rule:nonzero;stroke:#888a85;stroke-width:0.99999952;stroke-linecap:round;stroke-linejoin:round;marker:none;marker-start:none;marker-mid:none;marker-end:none;stroke-miterlimit:4;stroke-dasharray:none;stroke-dashoffset:1.20000057;stroke-opacity:1;visibility:visible;display:inline;overflow:visible" />
    <g
       transform="matrix(-0.7099133,0,0,-0.7282897,32.381233,33.332054)"
       id="g8200"
       style="opacity:0.1;display:inline">
      <path
         d="M 11.5,10.013768 L 4.013757,17.500012 C 3.729135,17.500012 3.5,17.270877 3.5,16.986255 L 3.5,10.013768 C 3.5,9.7291462 3.729135,9.5000105 4.013757,9.5000105 L 10.986243,9.5000105 C 11.270865,9.5000105 11.5,9.7291462 11.5,10.013768 z"
         id="path8202"
         style="fill:#000000;fill-opacity:1;fill-rule:nonzero;stroke:#000000;stroke-width:1.39073801;stroke-linecap:round;stroke-linejoin:round;marker:none;marker-start:none;marker-mid:none;marker-end:none;stroke-miterlimit:4;stroke-dashoffset:1.20000057;stroke-opacity:1;visibility:visible;display:inline;overflow:visible" />
      <path
         d="M 41.986242,17.50001 L 34.499998,10.013767 C 34.499998,9.729145 34.729133,9.50001 35.013755,9.50001 L 41.986242,9.50001 C 42.270864,9.50001 42.5,9.729145 42.5,10.013767 L 42.5,16.986253 C 42.5,17.270875 42.270864,17.50001 41.986242,17.50001 z"
         id="path8204"
         style="fill:#000000;fill-opacity:1;fill-rule:nonzero;stroke:#000000;stroke-width:1.39073801;stroke-linecap:round;stroke-linejoin:round;marker:none;marker-start:none;marker-mid:none;marker-end:none;stroke-miterlimit:4;stroke-dashoffset:1.20000057;stroke-opacity:1;visibility:visible;display:inline;overflow:visible" />
    </g>
    <rect
       width="25.014271"
       height="19.007475"
       x="3.4901257"
       y="6.505568"
       id="rect8206"
       style="fill:none;fill-opacity:1;fill-rule:nonzero;stroke:url(#linearGradient8313);stroke-width:0.99999952;stroke-linecap:round;stroke-linejoin:round;marker:none;marker-start:none;marker-mid:none;marker-end:none;stroke-miterlimit:4;stroke-dasharray:none;stroke-dashoffset:1.20000057;stroke-opacity:1;visibility:visible;display:inline;overflow:visible" />
    <path
       d="M 1.8647238,21.667919 L 7.1793082,27.140717 C 7.1793082,27.348788 7.0166424,27.516297 6.8145848,27.516297 L 1.8647238,27.516297 C 1.6626667,27.516297 1.5,27.348788 1.5,27.140717 L 1.5,22.0435 C 1.5,21.835427 1.6626667,21.667919 1.8647238,21.667919 z"
       id="path8208"
       style="fill:url(#linearGradient8310);fill-opacity:1;fill-rule:nonzero;stroke:#888a85;stroke-width:1;stroke-linecap:round;stroke-linejoin:round;marker:none;marker-start:none;marker-mid:none;marker-end:none;stroke-miterlimit:4;stroke-dashoffset:1.20000057;stroke-opacity:1;visibility:visible;display:inline;overflow:visible" />
    <path
       d="M 2.5067883,23.835701 L 2.5067883,26.444545 L 5.1319741,26.507045 L 2.5067883,23.835701 z"
       id="path8210"
       style="opacity:0.6;fill:none;fill-opacity:1;fill-rule:nonzero;stroke:url(#linearGradient8307);stroke-width:0.99999994;stroke-linecap:round;stroke-linejoin:miter;marker:none;marker-start:none;marker-mid:none;marker-end:none;stroke-miterlimit:4;stroke-dasharray:none;stroke-dashoffset:1.20000057;stroke-opacity:1;visibility:visible;display:inline;overflow:visible" />
    <g
       transform="matrix(0.7099133,0,0,0.7282897,-0.2747832,-1.6258526)"
       id="g8212"
       style="opacity:0.1">
      <path
         d="M 11.5,10.013768 L 4.013757,17.500012 C 3.729135,17.500012 3.5,17.270877 3.5,16.986255 L 3.5,10.013768 C 3.5,9.7291462 3.729135,9.5000105 4.013757,9.5000105 L 10.986243,9.5000105 C 11.270865,9.5000105 11.5,9.7291462 11.5,10.013768 z"
         id="path8214"
         style="fill:#000000;fill-opacity:1;fill-rule:nonzero;stroke:#000000;stroke-width:1.39073801;stroke-linecap:round;stroke-linejoin:round;marker:none;marker-start:none;marker-mid:none;marker-end:none;stroke-miterlimit:4;stroke-dashoffset:1.20000057;stroke-opacity:1;visibility:visible;display:inline;overflow:visible" />
      <path
         d="M 41.986242,17.50001 L 34.499998,10.013767 C 34.499998,9.729145 34.729133,9.50001 35.013755,9.50001 L 41.986242,9.50001 C 42.270864,9.50001 42.5,9.729145 42.5,10.013767 L 42.5,16.986253 C 42.5,17.270875 42.270864,17.50001 41.986242,17.50001 z"
         id="path8216"
         style="fill:#000000;fill-opacity:1;fill-rule:nonzero;stroke:#000000;stroke-width:1.39073801;stroke-linecap:round;stroke-linejoin:round;marker:none;marker-start:none;marker-mid:none;marker-end:none;stroke-miterlimit:4;stroke-dashoffset:1.20000057;stroke-opacity:1;visibility:visible;display:inline;overflow:visible" />
    </g>
    <path
       d="M 7.1793068,4.8837834 L 1.8647229,10.335932 C 1.662666,10.335932 1.5,10.169056 1.5,9.9617674 L 1.5,4.8837834 C 1.5,4.6764964 1.662666,4.5096194 1.8647229,4.5096194 L 6.8145835,4.5096194 C 7.016641,4.5096194 7.1793068,4.6764964 7.1793068,4.8837834 z"
       id="path8218"
       style="fill:url(#linearGradient8301);fill-opacity:1;fill-rule:nonzero;stroke:#888a85;stroke-width:1;stroke-linecap:round;stroke-linejoin:round;marker:none;marker-start:none;marker-mid:none;marker-end:none;stroke-miterlimit:4;stroke-dashoffset:1.20000057;stroke-opacity:1;visibility:visible;display:inline;overflow:visible" />
    <path
       d="M 30.14788,10.335685 L 24.916087,4.8835394 C 24.916087,4.6762514 25.076218,4.5093754 25.275128,4.5093754 L 30.14788,4.5093754 C 30.346791,4.5093754 30.506924,4.6762514 30.506924,4.8835394 L 30.506924,9.9615214 C 30.506924,10.16881 30.346791,10.335685 30.14788,10.335685 z"
       id="path8220"
       style="fill:url(#linearGradient8298);fill-opacity:1;fill-rule:nonzero;stroke:#888a85;stroke-width:1;stroke-linecap:round;stroke-linejoin:round;marker:none;marker-start:none;marker-mid:none;marker-end:none;stroke-miterlimit:4;stroke-dashoffset:1.20000057;stroke-opacity:1;visibility:visible;display:inline;overflow:visible" />
    <path
       d="M 25.760487,5.0007344 L 26.307521,5.5526594 L 26.405205,5.6548674 L 27.264831,5.6548674 L 29.374818,5.6548674 L 29.374818,7.8625654 L 29.374818,8.7619974 L 29.472502,8.8642064 L 30,9.4365704 L 30,8.6393484 L 30,5.3278014 L 30,5.0007344 L 29.687408,5.0007344 L 26.522428,5.0007344 L 25.760487,5.0007344 z"
       id="path8222"
       style="opacity:0.5;fill:url(#linearGradient8295);fill-opacity:1;fill-rule:nonzero;stroke:none;stroke-width:1;stroke-linecap:round;stroke-linejoin:miter;marker:none;stroke-miterlimit:4;stroke-dashoffset:1.20000057;stroke-opacity:1;visibility:visible;display:inline;overflow:visible" />
    <path
       d="M 24.927137,27.142427 L 30.145396,21.690272 C 30.343794,21.690272 30.50351,21.857149 30.50351,22.064437 L 30.50351,27.142427 C 30.50351,27.349714 30.343794,27.516591 30.145396,27.516591 L 25.28525,27.516591 C 25.086858,27.516591 24.927137,27.349714 24.927137,27.142427 z"
       id="path8224"
       style="fill:url(#linearGradient8292);fill-opacity:1;fill-rule:nonzero;stroke:#888a85;stroke-width:1;stroke-linecap:round;stroke-linejoin:round;marker:none;marker-start:none;marker-mid:none;marker-end:none;stroke-miterlimit:4;stroke-dashoffset:1.20000057;stroke-opacity:1;visibility:visible;display:inline;overflow:visible" />
    <path
       d="M 26.708839,26.725801 L 29.470795,26.491426 L 29.470795,23.851332 L 26.708839,26.725801 z"
       id="path8226"
       style="opacity:0.6;fill:none;fill-opacity:1;fill-rule:nonzero;stroke:url(#linearGradient8289);stroke-width:0.99999994;stroke-linecap:round;stroke-linejoin:miter;marker:none;marker-start:none;marker-mid:none;marker-end:none;stroke-miterlimit:4;stroke-dasharray:none;stroke-dashoffset:1.20000057;stroke-opacity:1;visibility:visible;display:inline;overflow:visible" />
    <path
       d="M 6.3155036,5.0161824 L 5.7586647,5.6148474 L 5.6592289,5.7257114 L 4.7841958,5.7257114 L 2.6363877,5.7257114 L 2.6363877,8.1203674 L 2.6363877,9.0959684 L 2.5369522,9.2068334 L 2,9.8276674 L 2,8.9629324 L 2,5.3709464 L 2,5.0161824 L 2.3181938,5.0161824 L 5.5399063,5.0161824 L 6.3155036,5.0161824 z"
       id="path8228"
       style="opacity:0.5;fill:url(#linearGradient8286);fill-opacity:1;fill-rule:nonzero;stroke:none;stroke-width:1;stroke-linecap:round;stroke-linejoin:miter;marker:none;stroke-miterlimit:4;stroke-dashoffset:1.20000057;stroke-opacity:1;visibility:visible;display:inline;overflow:visible" />
    <g
       transform="translate(-43.887758,-37.625313)"
       id="g8230" />
    <g
       transform="translate(-43.887758,-37.625313)"
       id="g8232"
       style="display:inline" />
    <g
       transform="translate(-56.152888,9.874677)"
       id="g8234"
       style="display:inline" />
    <g
       transform="translate(-59.738344,-125.39101)"
       id="layer2" />
    <path
       style="fill:url(#radialGradient8203);fill-opacity:1;fill-rule:evenodd;stroke:#888a85;stroke-width:1.00000012;stroke-linecap:butt;stroke-linejoin:miter;stroke-miterlimit:4;stroke-opacity:1;stroke-dasharray:none;stroke-dashoffset:0"
       d="m 10.315916,9.5898854 c -0.15704,0.0969665 -0.201352,0.296985 -0.110418,0.4528606 l 1.339281,2.2957567 C 11.24597,12.661567 10.997272,13.028154 10.776499,13.401221 L 8.4158525,12.867533 c -0.1727051,-0.03929 -0.3392611,0.072975 -0.379098,0.256706 l -0.5847189,2.623873 c -0.0398366,0.183729 0.0861183,0.366605 0.2588234,0.405894 l 2.1793103,0.487258 c 0.0012482,0.526588 0.0588237,1.057771 0.1932657,1.577791 L 7.9288179,19.549444 C 7.7770257,19.64317 7.7243218,19.841041 7.818399,20.002305 l 1.3586906,2.329028 c 0.0940774,0.161265 0.288595,0.206486 0.4403866,0.112761 l 2.1384168,-1.320386 c 0.350846,0.339101 0.744734,0.608732 1.155645,0.847789 l -0.578224,2.597234 c -0.041501,0.183343 0.06058,0.358319 0.232918,0.399263 l 2.535486,0.606758 c 0.172339,0.040943 0.337598,-0.073364 0.379098,-0.256707 l 0.591138,-2.537323 c 0.501152,-0.015374 1.006949,-0.078369 1.499664,-0.224503 l 1.3004604,2.2292125 c 0.090933,0.1558755 0.283346,0.20972685 0.440387,0.11276141 L 21.580483,23.497782 c 0.15704,-0.096966 0.201352,-0.296985 0.110418,-0.45286 L 20.37103,20.782437 c 0.3066,-0.346077 0.552311,-0.733611 0.771565,-1.132632 l 2.373561,0.593599 c 0.171823,0.043157 0.361276,-0.067276 0.405004,-0.250074 l 0.626825,-2.627242 C 24.591712,17.18329 24.48689,17.009984 24.315066,16.966825 L 21.931801,16.35659 C 21.913916,15.906726 21.853609,15.449114 21.738383,15.005177 L 23.8606,13.694793 c 0.151791,-0.093725 0.204496,-0.291595 0.110419,-0.45286 L 22.612328,10.912905 C 22.51825,10.75164 22.323733,10.706418 22.171942,10.800144 l -2.106017,1.300381 c -0.37274,-0.362661 -0.780565,-0.670209 -1.220369,-0.920968 l 0.73037,-2.487522 C 19.628986,8.5118519 19.544756,8.3252007 19.375408,8.2727662 L 16.869187,7.4895402 C 16.699836,7.4371059 16.533444,7.5494271 16.480384,7.7296106 L 15.71433,10.307053 c -0.009184,0.031185 -0.009018,0.065677 -0.009781,0.096552 c -0.446532,0.015 -0.900771,0.074168 -1.340947,0.194388 L 13.024321,8.3022359 C 12.933388,8.1463608 12.740976,8.0925086 12.583935,8.1894752 z m 4.401287,4.9760136 c 1.266143,-0.781793 2.660439,-0.350005 3.299724,0.745836 c 0.639282,1.0958419 0.353834,2.5648048 -0.91231,3.3465988 C 15.838472,19.440127 14.444176,19.008338 13.804893,17.912496 c -0.639284,-1.095838 -0.353835,-2.564804 0.91231,-3.346597 z"
       id="path2212" />
    <path
       sodipodi:type="inkscape:offset"
       inkscape:radius="-0.81703657"
       inkscape:original="M 60.375 3.125 L 60.375 7.15625 C 60.371912 7.5194123 60.130326 7.8372886 59.78125 7.9375 C 59.169905 8.1067881 58.559537 8.3768222 57.96875 8.6875 C 57.661279 8.8483892 57.285825 8.7983287 57.03125 8.5625 L 54.34375 6 L 51.71875 8.75 L 54.21875 11.09375 C 54.494859 11.351352 54.559366 11.764199 54.375 12.09375 C 53.971871 12.770414 53.623576 13.494497 53.40625 14.25 C 53.306039 14.599076 52.988162 14.840662 52.625 14.84375 L 48.75 14.84375 L 48.75 18.65625 L 52.59375 18.65625 C 52.956912 18.659338 53.274789 18.900924 53.375 19.25 C 53.567737 19.931631 53.884546 20.572703 54.25 21.21875 C 54.426168 21.533968 54.375412 21.927325 54.125 22.1875 L 51.34375 25.09375 L 54 27.6875 L 56.75 24.875 C 57.007602 24.598891 57.420449 24.534384 57.75 24.71875 C 58.429534 25.100218 59.139208 25.429005 59.875 25.625 C 60.224076 25.725211 60.465662 26.043088 60.46875 26.40625 L 60.46875 30.3125 L 64.28125 30.3125 L 64.28125 26.34375 C 64.280089 25.989098 64.507041 25.673886 64.84375 25.5625 C 65.481753 25.370962 66.108157 25.06554 66.71875 24.71875 C 67.033968 24.542582 67.427325 24.593338 67.6875 24.84375 L 70.375 27.5 L 73.0625 24.84375 L 70.375 22.15625 C 70.109267 21.890864 70.057769 21.478881 70.25 21.15625 C 70.571694 20.565843 70.8464 19.957479 71.03125 19.3125 C 71.131461 18.963424 71.449338 18.721838 71.8125 18.71875 L 75.625 18.71875 L 75.625 14.90625 L 71.84375 14.90625 C 71.480588 14.903162 71.162711 14.661576 71.0625 14.3125 C 70.851959 13.5584 70.53788 12.848827 70.15625 12.1875 C 69.971884 11.857949 70.036391 11.445102 70.3125 11.1875 L 73.21875 8.53125 L 70.71875 5.78125 L 67.71875 8.5 C 67.479528 8.8411617 67.022497 8.9486984 66.65625 8.75 C 66.056217 8.415393 65.434546 8.1264586 64.78125 7.9375 C 64.432174 7.8372886 64.190588 7.5194123 64.1875 7.15625 L 64.1875 3.125 L 60.375 3.125 z M 62.21875 12.125 C 65.060709 12.125 67.09375 14.292516 67.09375 16.78125 C 67.093749 19.269985 65.06071 21.437499 62.21875 21.4375 C 59.376789 21.437501 57.34375 19.269985 57.34375 16.78125 C 57.343748 14.292517 59.376789 12.125 62.21875 12.125 z "
       style="fill:none;stroke:#ffffff;stroke-width:1.63216686;stroke-linecap:butt;stroke-linejoin:miter;stroke-miterlimit:4;stroke-opacity:0.36862745;stroke-dasharray:none;stroke-dashoffset:0"
       id="path3195"
       d="m 61.1875,3.9375 l 0,3.21875 C 61.181366,7.8776636 60.693431,8.5196823 60,8.71875 c -0.530784,0.1469798 -1.098027,0.3939465 -1.65625,0.6875 c -0.611243,0.3198428 -1.368912,0.2188207 -1.875,-0.25 l -2.09375,-2 l -1.5,1.5625 L 54.78125,10.5 c 0.548076,0.511339 0.678466,1.345842 0.3125,2 C 55.083334,12.500199 55.072916,12.500199 55.0625,12.5 c -0.377866,0.634259 -0.683446,1.30284 -0.875,1.96875 c -0.199067,0.693433 -0.841086,1.181366 -1.5625,1.1875 l -3.0625,0 l 0,2.1875 l 3.03125,0 c 0.721414,0.006134 1.363433,0.494067 1.5625,1.1875 c 0.165449,0.585123 0.461459,1.160682 0.8125,1.78125 c 0.349989,0.626237 0.247488,1.420616 -0.25,1.9375 L 52.5,25.0625 l 1.5,1.46875 l 2.15625,-2.21875 c 0.511339,-0.548076 1.345842,-0.678466 2,-0.3125 c 0.642543,0.360702 1.295052,0.672619 1.9375,0.84375 c 0.693433,0.199067 1.181366,0.841086 1.1875,1.5625 l 0,3.09375 l 2.1875,0 l 0,-3.15625 c -0.002307,-0.704795 0.455863,-1.341144 1.125,-1.5625 C 65.143718,24.616141 65.731436,24.330019 66.3125,24 c 0.626237,-0.349989 1.420616,-0.247488 1.9375,0.25 l 2.125,2.09375 L 71.90625,24.8125 L 69.8125,22.71875 C 69.284962,22.1919 69.180878,21.390495 69.5625,20.75 c 0.302371,-0.554943 0.524226,-1.086554 0.6875,-1.65625 c 0.199067,-0.693433 0.841086,-1.181366 1.5625,-1.1875 l 3,0 l 0,-2.1875 l -2.96875,0 c -0.721414,-0.006134 -1.363433,-0.494067 -1.5625,-1.1875 c -0.189644,-0.679254 -0.491579,-1.327223 -0.84375,-1.9375 c -0.365966,-0.654158 -0.235576,-1.488661 0.3125,-2 l 2.3125,-2.125 L 70.65625,6.9375 l -2.375,2.15625 L 68.25,9.0625 C 67.754729,9.6353193 66.958158,9.8359901 66.28125,9.46875 C 66.270834,9.4689492 66.260416,9.4689492 66.25,9.46875 C 65.684885,9.1536152 65.135144,8.8843808 64.5625,8.71875 C 63.869069,8.5196823 63.381134,7.8776636 63.375,7.15625 l 0,-3.21875 z m 1.03125,7.375 c 3.257386,0 5.6875,2.535059 5.6875,5.46875 c -1e-06,2.933691 -2.430114,5.468749 -5.6875,5.46875 c -3.257388,1e-06 -5.6875,-2.535059 -5.6875,-5.46875 c -2e-06,-2.93369 2.430112,-5.46875 5.6875,-5.46875 z"
       transform="matrix(0.5184041,-0.3200938,0.3105579,0.5323493,-21.551805,27.596427)" />
  </g>
</svg>
