<?xml version="1.0" encoding="UTF-8" standalone="no"?>
<!-- Created with Inkscape (http://www.inkscape.org/) -->
<svg
   xmlns:dc="http://purl.org/dc/elements/1.1/"
   xmlns:cc="http://creativecommons.org/ns#"
   xmlns:rdf="http://www.w3.org/1999/02/22-rdf-syntax-ns#"
   xmlns:svg="http://www.w3.org/2000/svg"
   xmlns="http://www.w3.org/2000/svg"
   xmlns:xlink="http://www.w3.org/1999/xlink"
   xmlns:sodipodi="http://sodipodi.sourceforge.net/DTD/sodipodi-0.dtd"
   xmlns:inkscape="http://www.inkscape.org/namespaces/inkscape"
   inkscape:export-ydpi="90.000000"
   inkscape:export-xdpi="90.000000"
   inkscape:export-filename="/home/patrick/Desktop/desktop.png"
   width="32"
   height="32"
   id="svg11300"
   sodipodi:version="0.32"
   inkscape:version="0.46+devel"
   sodipodi:docbase="/home/patrick/Projects/Beryl/svn/beryl/trunk/beryl-settings/images"
   sodipodi:docname="plugins-utility.svg"
   inkscape:output_extension="org.inkscape.output.svg.inkscape"
   sodipodi:modified="true"
   version="1.0">
  <defs
     id="defs3">
    <linearGradient
       id="linearGradient8440">
      <stop
         style="stop-color:#edeeec;stop-opacity:1;"
         offset="0"
         id="stop8442" />
      <stop
         style="stop-color:#babdb6;stop-opacity:1;"
         offset="1"
         id="stop8444" />
    </linearGradient>
    <linearGradient
       id="linearGradient30743"
       inkscape:collect="always">
      <stop
         id="stop30745"
         offset="0"
         style="stop-color:#000000;stop-opacity:1;" />
      <stop
         id="stop30747"
         offset="1"
         style="stop-color:#000000;stop-opacity:0;" />
    </linearGradient>
    <radialGradient
       inkscape:collect="always"
       xlink:href="#linearGradient30743"
       id="radialGradient9570"
       gradientUnits="userSpaceOnUse"
       gradientTransform="matrix(1,0,0,0.6052632,0,2.3684209)"
       cx="10.5"
       cy="5.9999995"
       fx="10.5"
       fy="5.9999995"
       r="9.5" />
    <radialGradient
       inkscape:collect="always"
       xlink:href="#linearGradient8440"
       id="radialGradient3193"
       gradientUnits="userSpaceOnUse"
       gradientTransform="matrix(0.3810944,0.455232,-0.594625,0.4977864,-8.1655377,-1.6212846)"
       cx="56.704376"
       cy="10.241054"
       fx="56.704376"
       fy="10.241054"
       r="14.75" />
    <radialGradient
       inkscape:collect="always"
       xlink:href="#linearGradient30743"
       id="radialGradient4188"
       gradientUnits="userSpaceOnUse"
       gradientTransform="matrix(1,0,0,0.6052632,0,2.3684209)"
       cx="10.5"
       cy="5.9999995"
       fx="10.5"
       fy="5.9999995"
       r="9.5" />
    <radialGradient
       inkscape:collect="always"
       xlink:href="#linearGradient8440"
       id="radialGradient2188"
       gradientUnits="userSpaceOnUse"
       gradientTransform="matrix(0.664143,0.4987188,-0.6514275,0.8675051,-6.5927319,-24.793918)"
       cx="56.704376"
       cy="10.241054"
       fx="56.704376"
       fy="10.241054"
       r="14.75" />
    <linearGradient
       y2="41.842426"
       x2="30.034962"
       y1="37.667465"
       x1="36.201752"
       gradientUnits="userSpaceOnUse"
       id="linearGradient2462"
       xlink:href="#linearGradient3307"
       inkscape:collect="always" />
    <linearGradient
       y2="52.806263"
       x2="33.358002"
       y1="37.386215"
       x1="33.358002"
       gradientUnits="userSpaceOnUse"
       id="linearGradient2460"
       xlink:href="#linearGradient3315"
       inkscape:collect="always" />
    <linearGradient
       y2="51.470303"
       x2="33.233128"
       y1="44.886215"
       x1="38.045502"
       gradientUnits="userSpaceOnUse"
       id="linearGradient2458"
       xlink:href="#linearGradient3355"
       inkscape:collect="always" />
    <linearGradient
       y2="50.415848"
       x2="33.665684"
       y1="46.093544"
       x1="35.197689"
       gradientUnits="userSpaceOnUse"
       id="linearGradient2456"
       xlink:href="#linearGradient3331"
       inkscape:collect="always" />
    <linearGradient
       id="linearGradient3307"
       inkscape:collect="always">
      <stop
         id="stop3309"
         offset="0"
         style="stop-color:#888a85;stop-opacity:1;" />
      <stop
         id="stop3311"
         offset="1"
         style="stop-color:#888a85;stop-opacity:0;" />
    </linearGradient>
    <linearGradient
       id="linearGradient3315"
       inkscape:collect="always">
      <stop
         id="stop3317"
         offset="0"
         style="stop-color:white;stop-opacity:1;" />
      <stop
         id="stop3319"
         offset="1"
         style="stop-color:white;stop-opacity:0;" />
    </linearGradient>
    <linearGradient
       id="linearGradient3331"
       inkscape:collect="always">
      <stop
         id="stop3333"
         offset="0"
         style="stop-color:#d3d7cf;stop-opacity:1;" />
      <stop
         id="stop3335"
         offset="1"
         style="stop-color:#d3d7cf;stop-opacity:0;" />
    </linearGradient>
    <linearGradient
       id="linearGradient3355">
      <stop
         style="stop-color:#6f716c;stop-opacity:1;"
         offset="0"
         id="stop3357" />
      <stop
         style="stop-color:#888a85;stop-opacity:0;"
         offset="1"
         id="stop3359" />
    </linearGradient>
    <radialGradient
       r="14.75"
       fy="10.241054"
       fx="56.704376"
       cy="10.241054"
       cx="56.704376"
       gradientTransform="matrix(0.5647158,0.4244566,-0.553904,0.7383284,-17.952452,-22.504195)"
       gradientUnits="userSpaceOnUse"
       id="radialGradient2309"
       xlink:href="#linearGradient8440"
       inkscape:collect="always" />
    <radialGradient
       r="9.5"
       fy="5.9999995"
       fx="10.5"
       cy="5.9999995"
       cx="10.5"
       gradientTransform="matrix(1,0,0,0.6052632,0,2.3684209)"
       gradientUnits="userSpaceOnUse"
       id="radialGradient2336"
       xlink:href="#linearGradient30743"
       inkscape:collect="always" />
    <radialGradient
       inkscape:collect="always"
       xlink:href="#linearGradient8440"
       id="radialGradient8095"
       gradientUnits="userSpaceOnUse"
       gradientTransform="matrix(0.3892345,0.2697545,-0.3519144,0.5089594,-0.886613,-12.809984)"
       cx="56.704376"
       cy="10.241054"
       fx="56.704376"
       fy="10.241054"
       r="14.75" />
    <radialGradient
       inkscape:collect="always"
       xlink:href="#linearGradient8440"
       id="radialGradient8101"
       gradientUnits="userSpaceOnUse"
       gradientTransform="matrix(0.3015293,0.3651726,-0.4767128,0.3944976,-9.327136,-10.226779)"
       cx="56.704376"
       cy="10.241054"
       fx="56.704376"
       fy="10.241054"
       r="14.75" />
    <radialGradient
       inkscape:collect="always"
       xlink:href="#linearGradient8440"
       id="radialGradient8105"
       gradientUnits="userSpaceOnUse"
       gradientTransform="matrix(0.2541472,0.3057614,-0.3991523,0.3325036,-4.2874934,-2.221076)"
       cx="56.704376"
       cy="10.241054"
       fx="56.704376"
       fy="10.241054"
       r="14.75" />
    <radialGradient
       inkscape:collect="always"
       xlink:href="#linearGradient8440"
       id="radialGradient8210"
       gradientUnits="userSpaceOnUse"
       gradientTransform="matrix(0.5647158,0.4244566,-0.553904,0.7383284,-17.952452,-22.504195)"
       cx="56.704376"
       cy="10.241054"
       fx="56.704376"
       fy="10.241054"
       r="14.75" />
    <radialGradient
       inkscape:collect="always"
       xlink:href="#linearGradient30743"
       id="radialGradient8212"
       gradientUnits="userSpaceOnUse"
       gradientTransform="matrix(1,0,0,0.6052632,0,2.3684209)"
       cx="10.5"
       cy="5.9999995"
       fx="10.5"
       fy="5.9999995"
       r="9.5" />
    <linearGradient
       inkscape:collect="always"
       xlink:href="#linearGradient3331"
       id="linearGradient8214"
       gradientUnits="userSpaceOnUse"
       x1="35.197689"
       y1="46.093544"
       x2="33.665684"
       y2="50.415848" />
    <linearGradient
       inkscape:collect="always"
       xlink:href="#linearGradient3355"
       id="linearGradient8216"
       gradientUnits="userSpaceOnUse"
       x1="38.045502"
       y1="44.886215"
       x2="33.233128"
       y2="51.470303" />
    <linearGradient
       inkscape:collect="always"
       xlink:href="#linearGradient3315"
       id="linearGradient8218"
       gradientUnits="userSpaceOnUse"
       x1="33.358002"
       y1="37.386215"
       x2="33.358002"
       y2="52.806263" />
    <linearGradient
       inkscape:collect="always"
       xlink:href="#linearGradient3307"
       id="linearGradient8220"
       gradientUnits="userSpaceOnUse"
       x1="36.201752"
       y1="37.667465"
       x2="30.034962"
       y2="41.842426" />
    <radialGradient
       inkscape:collect="always"
       xlink:href="#linearGradient8440"
       id="radialGradient8231"
       gradientUnits="userSpaceOnUse"
       gradientTransform="matrix(0.5647158,0.4244566,-0.553904,0.7383284,-23.273638,-72.825788)"
       cx="56.704376"
       cy="10.241054"
       fx="56.704376"
       fy="10.241054"
       r="14.75" />
    <radialGradient
       inkscape:collect="always"
       xlink:href="#linearGradient30743"
       id="radialGradient8233"
       gradientUnits="userSpaceOnUse"
       gradientTransform="matrix(1,0,0,0.6052632,0,2.3684209)"
       cx="10.5"
       cy="5.9999995"
       fx="10.5"
       fy="5.9999995"
       r="9.5" />
    <radialGradient
       inkscape:collect="always"
       xlink:href="#linearGradient30743"
       id="radialGradient8237"
       gradientUnits="userSpaceOnUse"
       gradientTransform="matrix(1,0,0,0.6052632,0,2.3684209)"
       cx="10.5"
       cy="5.9999995"
       fx="10.5"
       fy="5.9999995"
       r="9.5" />
  </defs>
  <sodipodi:namedview
     stroke="#ef2929"
     fill="#eeeeec"
     id="base"
     pagecolor="#ffffff"
     bordercolor="#666666"
     borderopacity="0.25490196"
     inkscape:pageopacity="0.0"
     inkscape:pageshadow="2"
     inkscape:zoom="0.99999995"
     inkscape:cx="19.068078"
     inkscape:cy="10.088642"
     inkscape:current-layer="layer1"
     showgrid="false"
     inkscape:grid-bbox="true"
     inkscape:document-units="px"
     inkscape:showpageshadow="false"
     inkscape:window-width="906"
     inkscape:window-height="694"
     inkscape:window-x="190"
     inkscape:window-y="62"
     showguides="true"
     inkscape:guide-bbox="true">
    <inkscape:grid
       type="xygrid"
       id="grid8103"
       empspacing="5"
       visible="true"
       enabled="true" />
  </sodipodi:namedview>
  <metadata
     id="metadata4">
    <rdf:RDF>
      <cc:Work
         rdf:about="">
        <dc:format>image/svg+xml</dc:format>
        <dc:type
           rdf:resource="http://purl.org/dc/dcmitype/StillImage" />
        <dc:creator>
          <cc:Agent>
            <dc:title>Patrick Niklaus</dc:title>
          </cc:Agent>
        </dc:creator>
        <dc:source />
        <cc:license
           rdf:resource="http://creativecommons.org/licenses/GPL/2.0/" />
        <dc:title>Development</dc:title>
        <dc:subject>
          <rdf:Bag />
        </dc:subject>
      </cc:Work>
      <cc:License
         rdf:about="http://creativecommons.org/licenses/GPL/2.0/">
        <cc:permits
           rdf:resource="http://web.resource.org/cc/Reproduction" />
        <cc:permits
           rdf:resource="http://web.resource.org/cc/Distribution" />
        <cc:requires
           rdf:resource="http://web.resource.org/cc/Notice" />
        <cc:permits
           rdf:resource="http://web.resource.org/cc/DerivativeWorks" />
        <cc:requires
           rdf:resource="http://web.resource.org/cc/ShareAlike" />
        <cc:requires
           rdf:resource="http://web.resource.org/cc/SourceCode" />
      </cc:License>
    </rdf:RDF>
  </metadata>
  <g
     id="layer1"
     inkscape:label="Layer 1"
     inkscape:groupmode="layer">
    <path
       style="fill:url(#radialGradient8095);fill-opacity:1;fill-rule:evenodd;stroke:#888a85;stroke-width:1;stroke-linecap:butt;stroke-linejoin:miter;stroke-miterlimit:4;stroke-opacity:1;stroke-dasharray:none;stroke-dashoffset:0"
       d="M 18.302443,2.5031578 C 18.123729,2.552342 18.027714,2.7302445 18.075217,2.9031833 L 18.774843,5.450261 C 18.398211,5.6754787 18.058942,5.9557433 17.745191,6.2497967 L 15.584512,5.0974408 C 15.426501,5.0129014 15.23447,5.0740193 15.147119,5.23767 l -1.262875,2.332797 c -0.087349,0.1636502 -0.01283,0.371814 0.14518,0.4563533 l 1.99614,1.0586741 C 15.887746,9.5860878 15.803632,10.106445 15.79741,10.637213 l -2.451981,0.674819 c -0.172741,0.047542 -0.27637,0.221108 -0.227226,0.400026 l 0.709766,2.583992 c 0.049145,0.178919 0.226856,0.275056 0.399597,0.227515 l 2.433543,-0.669747 c 0.252536,0.418058 0.565379,0.781886 0.902891,1.121324 l -1.249509,2.309266 c -0.08887,0.162828 -0.035542,0.356959 0.121674,0.44297 l 2.311854,1.269569 c 0.157217,0.086011 0.348523,0.022599 0.437392,-0.140229 l 1.246283,-2.248821 c 0.492674,0.122401 1.002448,0.200833 1.521422,0.196706 l 0.679346,2.473249 c 0.047502,0.172939 0.220884,0.2767 0.399598,0.227516 l 2.581031,-0.710338 c 0.178713,-0.049185 0.274728,-0.227087 0.227224,-0.400027 l -0.689484,-2.510162 c 0.390303,-0.244951 0.732188,-0.545931 1.051312,-0.865056 l 2.157455,1.212801 c 0.156129,0.087973 0.369999,0.034856 0.460898,-0.126846 l 1.304816,-2.324487 c 0.090898,-0.161702 0.034456,-0.354997 -0.121674,-0.44297 l -2.162522,-1.231257 c 0.101341,-0.432257 0.163366,-0.88347 0.168236,-1.336705 l 2.415108,-0.664674 c 0.172738,-0.04754 0.276372,-0.221106 0.227227,-0.400024 L 29.941921,7.1216303 C 29.892776,6.9427111 29.715064,6.846574 29.542324,6.8941147 L 27.145651,7.5537145 C 26.877989,7.1072897 26.56157,6.7036309 26.198977,6.3451787 l 1.36888,-2.1634472 C 27.667163,4.0250651 27.634323,3.824723 27.483054,3.7286134 L 25.246328,2.2994016 C 25.095058,2.2032925 24.903172,2.2645075 24.803865,2.4211739 l -1.427415,2.239114 c -0.017187,0.0271155 -0.026132,0.0599282 -0.035028,0.08905 -0.439323,-0.1078248 -0.89782,-0.175796 -1.358725,-0.1819254 L 21.283071,2.0203348 C 21.235569,1.847396 21.062189,1.7436355 20.883474,1.7928204 z m 2.977358,5.9303879 c 1.440887,-0.3965528 2.686298,0.3948161 3.020251,1.6106211 0.333954,1.215806 -0.332204,2.533267 -1.773092,2.929821 -1.440888,0.396553 -2.686296,-0.394816 -3.020251,-1.610622 -0.333956,-1.215803 0.332205,-2.533268 1.773092,-2.9298208 z"
       id="path8074" />
    <path
       sodipodi:type="inkscape:offset"
       inkscape:radius="-1.5377339"
       inkscape:original="M 13.65625 0.5 L 9.78125 1.4375 C 9.5120052 1.5005225 9.3453905 1.7395087 9.40625 2 L 10.3125 5.84375 C 9.7380799 6.157752 9.2033931 6.5485326 8.71875 6.96875 L 5.5625 5.125 C 5.3318146 4.9899046 5.0458859 5.0736131 4.90625 5.3125 L 2.90625 8.71875 C 2.7666149 8.9576361 2.8630648 9.2711547 3.09375 9.40625 L 6 11.09375 C 5.7657362 11.83193 5.602327 12.615524 5.5625 13.40625 L 1.875 14.28125 C 1.6147536 14.342167 1.4370367 14.574252 1.5 14.84375 L 2.4375 18.75 C 2.5004635 19.019499 2.7397543 19.154666 3 19.09375 L 6.65625 18.25 C 7.0086483 18.88763 7.4538985 19.44341 7.9375 19.96875 L 5.96875 23.34375 C 5.8268963 23.581324 5.895584 23.862757 6.125 24 L 9.5 26.03125 C 9.7294169 26.168491 10.014398 26.081323 10.15625 25.84375 L 12.125 22.5625 C 12.852396 22.773285 13.632365 22.913785 14.40625 22.9375 L 15.25 26.6875 C 15.310857 26.94799 15.574505 27.094273 15.84375 27.03125 L 19.71875 26.125 C 19.987995 26.061976 20.154611 25.791743 20.09375 25.53125 L 19.21875 21.75 C 19.814686 21.407374 20.318405 20.988527 20.8125 20.53125 L 23.96875 22.46875 C 24.196433 22.608853 24.511438 22.548279 24.65625 22.3125 L 26.75 18.90625 C 26.89481 18.670473 26.821434 18.390105 26.59375 18.25 L 23.4375 16.28125 C 23.613452 15.642822 23.747901 14.987746 23.78125 14.3125 L 27.40625 13.4375 C 27.666493 13.376584 27.844213 13.144497 27.78125 12.875 L 26.84375 8.96875 C 26.780788 8.699251 26.541496 8.5640839 26.28125 8.625 L 22.65625 9.46875 C 22.282935 8.7879702 21.832395 8.1488734 21.3125 7.59375 L 23.5 4.46875 C 23.657054 4.2409608 23.594969 3.9332023 23.375 3.78125 L 20.125 1.53125 C 19.905032 1.3792983 19.625807 1.4597109 19.46875 1.6875 L 17.21875 4.9375 C 17.191567 4.9769251 17.171188 5.0196073 17.15625 5.0625 C 16.507547 4.87651 15.811731 4.7544099 15.125 4.71875 L 14.25 0.875 C 14.189142 0.61450869 13.925496 0.43697696 13.65625 0.5 z M 15.40625 10.375 C 16.851459 10.598371 17.96036 11.626509 18.28125 13 C 18.709102 14.831321 17.639546 16.773127 15.46875 17.28125 C 13.297953 17.789374 11.490354 16.518821 11.0625 14.6875 C 10.634644 12.856183 11.704204 10.945623 13.875 10.4375 C 14.417699 10.310469 14.924514 10.300543 15.40625 10.375 z "
       style="fill:none;stroke:#ffffff;stroke-width:1.4917016;stroke-linecap:butt;stroke-linejoin:miter;stroke-miterlimit:4;stroke-opacity:0.35294118;stroke-dasharray:none;stroke-dashoffset:0"
       id="path8722"
       d="M 13,2.25 11.15625,2.6875 11.8125,5.5 C 11.965627,6.1667004 11.659981,6.854403 11.0625,7.1875 10.606839,7.4365832 10.136952,7.7623916 9.71875,8.125 9.2193941,8.5523711 8.5036347,8.615157 7.9375,8.28125 L 5.6875,6.96875 4.75,8.59375 6.78125,9.75 C 7.410277,10.115503 7.6971375,10.871771 7.46875,11.5625 7.2670279,12.198139 7.1255143,12.838101 7.09375,13.46875 7.06664,14.1606 6.5805446,14.749031 5.90625,14.90625 L 3.25,15.53125 3.6875,17.34375 6.3125,16.75 C 6.9792004,16.596873 7.666903,16.902519 8,17.5 8.2701352,17.988783 8.6263819,18.463742 9.0625,18.9375 9.5249258,19.428357 9.6136161,20.163219 9.28125,20.75 l -1.46875,2.5 1.5625,0.9375 1.4375,-2.40625 c 0.35900813,-0.60059173 1.0781913,-0.88312796 1.75,-0.6875 0.620599,0.179837 1.286604,0.293512 1.90625,0.3125 0.6918497,0.027109997 1.280281,0.51320544 1.4375,1.1875 L 16.5,25.28125 18.375,24.875 17.71875,22.09375 C 17.559973,21.434296 17.85199,20.748693 18.4375,20.40625 c 0.451079,-0.259342 0.888482,-0.578656 1.34375,-1 C 20.284935,18.938879 21.037541,18.862343 21.625,19.21875 L 23.90625,20.625 24.875,19 22.625,17.59375 C 22.049895,17.229273 21.782908,16.53002 21.96875,15.875 22.126426,15.302886 22.224278,14.770809 22.25,14.25 22.273328,13.567197 22.744317,12.981643 23.40625,12.8125 l 2.625,-0.625 L 25.59375,10.375 23,10.96875 C 22.3333,11.121877 21.645597,10.816231 21.3125,10.21875 20.994896,9.6395656 20.607865,9.1050994 20.1875,8.65625 19.691906,8.1216648 19.639707,7.312586 20.0625,6.71875 L 21.65625,4.4375 20.125,3.40625 l -1.5625,2.25 C 18.534366,5.7101405 18.503061,5.7623154 18.46875,5.8125 18.119205,6.4249811 17.397881,6.7212393 16.71875,6.53125 16.178692,6.3764096 15.590164,6.2790228 15.03125,6.25 14.351224,6.209322 13.778996,5.7261076 13.625,5.0625 z m 2.65625,6.59375 c 2.031796,0.3140337 3.664235,1.840307 4.125,3.8125 0.6118,2.61867 -1.06059,5.444281 -3.96875,6.125 -2.909124,0.680946 -5.639702,-1.137773 -6.25,-3.75 -0.6109262,-2.614897 1.074212,-5.416219 3.96875,-6.09375 0.732253,-0.1714005 1.461979,-0.1962264 2.125,-0.09375 z"
       transform="matrix(0.6698147,-2.5862604e-2,2.5867354e-2,0.6699377,11.720326,1.8021276)" />
    <g
       style="display:inline"
       inkscape:label="Base"
       id="g2721"
       transform="translate(87.563757,-78.826335)" />
    <path
       sodipodi:type="arc"
       style="opacity:0.25899999;fill:url(#radialGradient8233);fill-opacity:1;fill-rule:evenodd;stroke:none"
       id="path4186"
       sodipodi:cx="10.5"
       sodipodi:cy="5.9999995"
       sodipodi:rx="9.5"
       sodipodi:ry="5.75"
       d="M 20,5.9999995 A 9.5,5.75 0 1 1 1,5.9999995 9.5,5.75 0 1 1 20,5.9999995 z"
       transform="matrix(0.6790602,0,0,0.3426355,1.7007103,27.983863)" />
    <path
       id="path8097"
       d="M 7.78864,14.482152 C 7.6330202,14.481729 7.5153344,14.604025 7.5148504,14.754595 L 7.507718,16.972218 C 7.1524069,17.069653 6.8149344,17.220022 6.4949995,17.387282 L 5.0065693,15.969089 C 4.8977798,15.86516 4.7287041,15.871394 4.6212322,15.984113 l -1.5463086,1.602785 c -0.1074711,0.112717 -0.0940276,0.297857 0.0147611,0.401786 l 1.3764176,1.305401 C 4.2420055,19.667987 4.0569015,20.069958 3.932459,20.497874 L 1.7973373,20.492071 C 1.6469185,20.491663 1.5240487,20.608739 1.5235476,20.764515 l -0.0072362,2.249762 c -0.0005012,0.155777 0.1216137,0.273518 0.2720318,0.273928 l 2.1190677,0.005757 c 0.11021228,0.394965 0.28140555,0.759632 0.47803995,1.11012 l -1.5302039,1.586759 c -0.1085157,0.111712 -0.1090558,0.280733 -0.0012406,0.385674 l 1.5843387,1.547012 c 0.1078157,0.10494 0.2768217,0.096689 0.3853363,-0.015023 L 6.3376775,26.36991 c 0.3709654,0.209845 0.7656554,0.387972 1.1863594,0.501391 L 7.517111,29.024645 c -0.0004849,0.150569 0.1164123,0.273504 0.2720322,0.273927 l 2.247496,0.006107 c 0.1556192,0.000422 0.2733052,-0.121873 0.2737882,-0.272445 l 0.007031,-2.185482 c 0.3708078,-0.110321 0.7150578,-0.276855 1.0449788,-0.463187 l 1.4722234,1.466359 c 0.1064947,0.106283 0.2914352,0.111434 0.4013382,0.00109 l 1.5783638,-1.586628 c 0.109902,-0.110344 0.107736,-0.27939 0.00124,-0.385673 L 13.343433,24.396285 c 0.179218,-0.326835 0.3308993,-0.677847 0.436805,-1.043354 l 2.1030152,0.005714 c 0.150416,0.000408 0.273289,-0.116667 0.27379,-0.272443 L 16.164279,20.83644 c 0.000501,-0.155777 -0.121613,-0.273519 -0.272032,-0.273928 l -2.08696,-0.00567 C 13.68922,20.13553 13.524096,19.737841 13.311453,19.366329 l 1.5939528,-1.441956 c 0.11557,-0.104381 0.13408,-0.273816 0.033347,-0.385586 L 13.451096,15.879548 C 13.350363,15.767777 13.181382,15.774121 13.065811,15.8785 l -1.658322,1.489992 c -0.020003,0.018065 -0.03462,0.042593 -0.048367,0.064148 -0.331092,-0.186053 -0.686659,-0.344181 -1.0580867,-0.452832 l 0.0071317,-2.217622 c 0.000485,-0.15057 -0.116411,-0.273504 -0.272031,-0.273927 z m 1.0740661,5.4666743 c 1.2546873,0.00341 2.0840095,0.923702 2.0806032,1.982247 -0.0034055,1.058546 -0.83863,1.974314 -2.0933184,1.970906 -1.2546883,-0.00341 -2.0840079,-0.923702 -2.0806032,-1.982248 0.0034034,-1.058544 0.838631,-1.974315 2.0933184,-1.970905 z"
       style="fill:url(#radialGradient8105);fill-opacity:1;fill-rule:evenodd;stroke:#888a85;stroke-width:1;stroke-linecap:butt;stroke-linejoin:miter;stroke-miterlimit:4;stroke-opacity:1;stroke-dasharray:none;stroke-dashoffset:0" />
    <path
       transform="matrix(0.5476034,0.1297729,-0.1297967,0.547704,2.6223578,12.434301)"
       d="M 12.84375,2.46875 11.375,2.84375 12,5.4375 C 12.187161,6.19965 11.841727,6.9928698 11.15625,7.375 10.716387,7.6154475 10.284364,7.9263049 9.875,8.28125 9.3090748,8.7749608 8.4904891,8.8505226 7.84375,8.46875 L 5.78125,7.25 5.03125,8.53125 6.875,9.59375 C 7.5782189,10.004966 7.9026696,10.848538 7.65625,11.625 7.4588567,12.246999 7.3431918,12.890645 7.3125,13.5 7.2668073,14.270151 6.7201033,14.918568 5.96875,15.09375 L 3.5,15.6875 3.84375,17.125 6.25,16.5625 C 7.01215,16.375339 7.8053698,16.720773 8.1875,17.40625 c 0.2591924,0.468983 0.6014482,0.908103 1.03125,1.375 C 9.7374485,19.345769 9.8262444,20.182987 9.4375,20.84375 L 8.09375,23.15625 9.3125,23.875 10.625,21.65625 c 0.40796103,-0.68903011 1.2330165,-1.0113174 2,-0.78125 0.606393,0.175721 1.244622,0.29414 1.84375,0.3125 0.7912128,0.035752968 1.4587808,0.60061822 1.625,1.375 l 0.5625,2.5 1.46875,-0.34375 -0.59375,-2.5625 C 17.353785,21.411328 17.683465,20.637848 18.34375,20.25 18.77556,20.001736 19.174896,19.666564 19.625,19.25 20.195021,18.716088 21.05068,18.62669 21.71875,19.03125 l 2.125,1.28125 0.78125,-1.25 L 22.5,17.75 C 21.850211,17.340126 21.545537,16.553052 21.75,15.8125 21.905245,15.249207 22.006543,14.719016 22.03125,14.21875 22.076943,13.448599 22.623647,12.800182 23.375,12.625 l 2.40625,-0.59375 -0.34375,-1.4375 -2.375,0.5625 C 22.30035,11.343411 21.50713,10.997977 21.125,10.3125 20.814807,9.7468301 20.438375,9.2159625 20.03125,8.78125 19.469293,8.1804003 19.404148,7.2683717 19.875,6.59375 L 21.34375,4.5 20.1875,3.71875 18.75,5.78125 C 18.721497,5.8349328 18.690204,5.8870874 18.65625,5.9375 18.261154,6.6245582 17.452162,6.9584279 16.6875,6.75 16.161894,6.5993032 15.573162,6.4968899 15.03125,6.46875 14.251907,6.4193288 13.600618,5.8574319 13.4375,5.09375 z m 2.84375,6.1875 c 2.109826,0.3260939 3.801878,1.885666 4.28125,3.9375 0.63627,2.723405 -1.087504,5.671321 -4.09375,6.375 -3.007338,0.703935 -5.865433,-1.158894 -6.5,-3.875 C 8.7397213,12.374618 10.477937,9.4500661 13.46875,8.75 14.226218,8.5726974 15.000364,8.5500464 15.6875,8.65625 z"
       id="path8099"
       style="fill:none;stroke:#ffffff;stroke-width:1.7767607;stroke-linecap:butt;stroke-linejoin:miter;stroke-miterlimit:4;stroke-opacity:0.35294118;stroke-dasharray:none;stroke-dashoffset:0"
       inkscape:original="M 13.65625 0.5 L 9.78125 1.4375 C 9.5120052 1.5005225 9.3453905 1.7395087 9.40625 2 L 10.3125 5.84375 C 9.7380799 6.157752 9.2033931 6.5485326 8.71875 6.96875 L 5.5625 5.125 C 5.3318146 4.9899046 5.0458859 5.0736131 4.90625 5.3125 L 2.90625 8.71875 C 2.7666149 8.9576361 2.8630648 9.2711547 3.09375 9.40625 L 6 11.09375 C 5.7657362 11.83193 5.602327 12.615524 5.5625 13.40625 L 1.875 14.28125 C 1.6147536 14.342167 1.4370367 14.574252 1.5 14.84375 L 2.4375 18.75 C 2.5004635 19.019499 2.7397543 19.154666 3 19.09375 L 6.65625 18.25 C 7.0086483 18.88763 7.4538985 19.44341 7.9375 19.96875 L 5.96875 23.34375 C 5.8268963 23.581324 5.895584 23.862757 6.125 24 L 9.5 26.03125 C 9.7294169 26.168491 10.014398 26.081323 10.15625 25.84375 L 12.125 22.5625 C 12.852396 22.773285 13.632365 22.913785 14.40625 22.9375 L 15.25 26.6875 C 15.310857 26.94799 15.574505 27.094273 15.84375 27.03125 L 19.71875 26.125 C 19.987995 26.061976 20.154611 25.791743 20.09375 25.53125 L 19.21875 21.75 C 19.814686 21.407374 20.318405 20.988527 20.8125 20.53125 L 23.96875 22.46875 C 24.196433 22.608853 24.511438 22.548279 24.65625 22.3125 L 26.75 18.90625 C 26.89481 18.670473 26.821434 18.390105 26.59375 18.25 L 23.4375 16.28125 C 23.613452 15.642822 23.747901 14.987746 23.78125 14.3125 L 27.40625 13.4375 C 27.666493 13.376584 27.844213 13.144497 27.78125 12.875 L 26.84375 8.96875 C 26.780788 8.699251 26.541496 8.5640839 26.28125 8.625 L 22.65625 9.46875 C 22.282935 8.7879702 21.832395 8.1488734 21.3125 7.59375 L 23.5 4.46875 C 23.657054 4.2409608 23.594969 3.9332023 23.375 3.78125 L 20.125 1.53125 C 19.905032 1.3792983 19.625807 1.4597109 19.46875 1.6875 L 17.21875 4.9375 C 17.191567 4.9769251 17.171188 5.0196073 17.15625 5.0625 C 16.507547 4.87651 15.811731 4.7544099 15.125 4.71875 L 14.25 0.875 C 14.189142 0.61450869 13.925496 0.43697696 13.65625 0.5 z M 15.40625 10.375 C 16.851459 10.598371 17.96036 11.626509 18.28125 13 C 18.709102 14.831321 17.639546 16.773127 15.46875 17.28125 C 13.297953 17.789374 11.490354 16.518821 11.0625 14.6875 C 10.634644 12.856183 11.704204 10.945623 13.875 10.4375 C 14.417699 10.310469 14.924514 10.300543 15.40625 10.375 z "
       inkscape:radius="-1.742288"
       sodipodi:type="inkscape:offset" />
    <g
       style="display:inline"
       inkscape:label="Base"
       id="g8203"
       transform="translate(108.75614,-110.14793)" />
    <path
       transform="matrix(0.9651593,0,0,0.3426355,12.374767,27.983863)"
       d="M 20,5.9999995 A 9.5,5.75 0 1 1 1,5.9999995 9.5,5.75 0 1 1 20,5.9999995 z"
       sodipodi:ry="5.75"
       sodipodi:rx="9.5"
       sodipodi:cy="5.9999995"
       sodipodi:cx="10.5"
       id="path8235"
       style="opacity:0.25899999;fill:url(#radialGradient8237);fill-opacity:1;fill-rule:evenodd;stroke:none"
       sodipodi:type="arc" />
  </g>
</svg>
