<?xml version="1.0" encoding="UTF-8" standalone="no"?>
<!-- Created with Inkscape (http://www.inkscape.org/) -->
<svg
   xmlns:dc="http://purl.org/dc/elements/1.1/"
   xmlns:cc="http://creativecommons.org/ns#"
   xmlns:rdf="http://www.w3.org/1999/02/22-rdf-syntax-ns#"
   xmlns:svg="http://www.w3.org/2000/svg"
   xmlns="http://www.w3.org/2000/svg"
   xmlns:xlink="http://www.w3.org/1999/xlink"
   xmlns:sodipodi="http://sodipodi.sourceforge.net/DTD/sodipodi-0.dtd"
   xmlns:inkscape="http://www.inkscape.org/namespaces/inkscape"
   inkscape:export-ydpi="90.000000"
   inkscape:export-xdpi="90.000000"
   inkscape:export-filename="/home/patrick/Desktop/desktop.png"
   width="32"
   height="32"
   id="svg11300"
   sodipodi:version="0.32"
   inkscape:version="0.45+devel"
   sodipodi:docbase="/home/patrick/Projects/Beryl/svn/beryl/trunk/beryl-settings/images"
   sodipodi:docname="plugins-profiles.svg"
   inkscape:output_extension="org.inkscape.output.svg.inkscape"
   version="1.0">
  <defs
     id="defs3">
    <linearGradient
       id="linearGradient8440">
      <stop
         style="stop-color:#edeeec;stop-opacity:1;"
         offset="0"
         id="stop8442" />
      <stop
         style="stop-color:#babdb6;stop-opacity:1;"
         offset="1"
         id="stop8444" />
    </linearGradient>
    <linearGradient
       id="linearGradient259">
      <stop
         style="stop-color:#fafafa;stop-opacity:1.0000000;"
         offset="0.0000000"
         id="stop260" />
      <stop
         style="stop-color:#bbbbbb;stop-opacity:1.0000000;"
         offset="1.0000000"
         id="stop261" />
    </linearGradient>
    <linearGradient
       id="linearGradient269">
      <stop
         style="stop-color:#a3a3a3;stop-opacity:1.0000000;"
         offset="0.0000000"
         id="stop270" />
      <stop
         style="stop-color:#8a8a8a;stop-opacity:1;"
         offset="1"
         id="stop271" />
    </linearGradient>
    <linearGradient
       id="linearGradient15662">
      <stop
         style="stop-color:#ffffff;stop-opacity:1.0000000;"
         offset="0.0000000"
         id="stop15664" />
      <stop
         style="stop-color:#f8f8f8;stop-opacity:1.0000000;"
         offset="1.0000000"
         id="stop15666" />
    </linearGradient>
    <linearGradient
       id="linearGradient2251"
       inkscape:collect="always">
      <stop
         id="stop2253"
         offset="0"
         style="stop-color:#ffffff;stop-opacity:1;" />
      <stop
         id="stop2255"
         offset="1"
         style="stop-color:#ffffff;stop-opacity:0;" />
    </linearGradient>
    <linearGradient
       id="linearGradient4790"
       inkscape:collect="always">
      <stop
         id="stop4792"
         offset="0"
         style="stop-color:#000000;stop-opacity:1;" />
      <stop
         id="stop4794"
         offset="1"
         style="stop-color:#000000;stop-opacity:0;" />
    </linearGradient>
    <linearGradient
       id="linearGradient3688"
       inkscape:collect="always">
      <stop
         id="stop3690"
         offset="0"
         style="stop-color:black;stop-opacity:1;" />
      <stop
         id="stop3692"
         offset="1"
         style="stop-color:black;stop-opacity:0;" />
    </linearGradient>
    <linearGradient
       id="linearGradient3702">
      <stop
         id="stop3704"
         offset="0"
         style="stop-color:black;stop-opacity:0;" />
      <stop
         style="stop-color:black;stop-opacity:1;"
         offset="0.5"
         id="stop3710" />
      <stop
         id="stop3706"
         offset="1"
         style="stop-color:black;stop-opacity:0;" />
    </linearGradient>
    <radialGradient
       inkscape:collect="always"
       xlink:href="#linearGradient8440"
       id="radialGradient8355"
       gradientUnits="userSpaceOnUse"
       gradientTransform="matrix(0.4001728,0.137953,-0.1814274,0.5219033,-11.109589,1.8573304)"
       cx="56.704376"
       cy="10.241054"
       fx="56.704376"
       fy="10.241054"
       r="14.75" />
    <radialGradient
       inkscape:collect="always"
       xlink:href="#linearGradient4790"
       id="radialGradient8370"
       gradientUnits="userSpaceOnUse"
       gradientTransform="matrix(1.744653,0,0,1.283833,-26.58256,-3.478359)"
       cx="37.030354"
       cy="12.98915"
       fx="37.030354"
       fy="12.98915"
       r="4.2929163" />
    <radialGradient
       inkscape:collect="always"
       xlink:href="#linearGradient259"
       id="radialGradient8372"
       gradientUnits="userSpaceOnUse"
       gradientTransform="matrix(0.148355,1.009137e-2,-1.104438e-2,0.162365,25.06011,12.81706)"
       cx="30.653816"
       cy="14.9373"
       fx="30.653816"
       fy="14.9373"
       r="86.70845" />
    <radialGradient
       inkscape:collect="always"
       xlink:href="#linearGradient269"
       id="radialGradient8374"
       gradientUnits="userSpaceOnUse"
       gradientTransform="matrix(0.331735,0,0,0.353831,20.10526,9.5823)"
       cx="31.863327"
       cy="2.3667307"
       fx="31.863327"
       fy="2.3667307"
       r="37.751713" />
    <linearGradient
       inkscape:collect="always"
       xlink:href="#linearGradient2251"
       id="linearGradient8376"
       gradientUnits="userSpaceOnUse"
       gradientTransform="matrix(-2.48131e-2,-0.756771,0.756567,-2.481981e-2,8.221918,36.1682)"
       x1="33.396004"
       y1="36.921333"
       x2="34.170048"
       y2="38.070381" />
    <radialGradient
       inkscape:collect="always"
       xlink:href="#linearGradient259"
       id="radialGradient8378"
       gradientUnits="userSpaceOnUse"
       gradientTransform="matrix(0.9907871,0,0,1.0604597,-0.6576517,-0.1982243)"
       cx="33.966679"
       cy="35.736916"
       fx="33.966679"
       fy="35.736916"
       r="86.70845" />
    <radialGradient
       inkscape:collect="always"
       xlink:href="#linearGradient269"
       id="radialGradient8380"
       gradientUnits="userSpaceOnUse"
       gradientTransform="matrix(0.9988117,0,0,1.0519401,2.8016713,0.4602236)"
       cx="8.824419"
       cy="3.7561285"
       fx="8.824419"
       fy="3.7561285"
       r="37.751713" />
    <radialGradient
       inkscape:collect="always"
       xlink:href="#linearGradient15662"
       id="radialGradient8382"
       gradientUnits="userSpaceOnUse"
       gradientTransform="matrix(0.9767883,0,0,1.0291075,3.3156277,0.9781569)"
       cx="8.1435566"
       cy="7.2678967"
       fx="8.1435566"
       fy="7.2678967"
       r="38.158695" />
    <radialGradient
       inkscape:collect="always"
       xlink:href="#linearGradient3688"
       id="radialGradient8384"
       gradientUnits="userSpaceOnUse"
       gradientTransform="matrix(2.003784,0,0,1.4,27.98813,-17.4)"
       cx="4.9929786"
       cy="43.5"
       fx="4.9929786"
       fy="43.5"
       r="2.5" />
    <radialGradient
       inkscape:collect="always"
       xlink:href="#linearGradient3688"
       id="radialGradient8386"
       gradientUnits="userSpaceOnUse"
       gradientTransform="matrix(2.003784,0,0,1.4,-20.01187,-104.4)"
       cx="4.9929786"
       cy="43.5"
       fx="4.9929786"
       fy="43.5"
       r="2.5" />
    <linearGradient
       inkscape:collect="always"
       xlink:href="#linearGradient3702"
       id="linearGradient8388"
       gradientUnits="userSpaceOnUse"
       x1="25.058096"
       y1="47.027729"
       x2="25.058096"
       y2="39.999443" />
    <linearGradient
       id="linearGradient3307"
       inkscape:collect="always">
      <stop
         id="stop3309"
         offset="0"
         style="stop-color:#888a85;stop-opacity:1;" />
      <stop
         id="stop3311"
         offset="1"
         style="stop-color:#888a85;stop-opacity:0;" />
    </linearGradient>
    <linearGradient
       id="linearGradient3315"
       inkscape:collect="always">
      <stop
         id="stop3317"
         offset="0"
         style="stop-color:white;stop-opacity:1;" />
      <stop
         id="stop3319"
         offset="1"
         style="stop-color:white;stop-opacity:0;" />
    </linearGradient>
    <linearGradient
       id="linearGradient3331"
       inkscape:collect="always">
      <stop
         id="stop3333"
         offset="0"
         style="stop-color:#d3d7cf;stop-opacity:1;" />
      <stop
         id="stop3335"
         offset="1"
         style="stop-color:#d3d7cf;stop-opacity:0;" />
    </linearGradient>
    <linearGradient
       id="linearGradient3355">
      <stop
         style="stop-color:#6f716c;stop-opacity:1;"
         offset="0"
         id="stop3357" />
      <stop
         style="stop-color:#888a85;stop-opacity:0;"
         offset="1"
         id="stop3359" />
    </linearGradient>
    <linearGradient
       inkscape:collect="always"
       xlink:href="#linearGradient3331"
       id="linearGradient8359"
       gradientUnits="userSpaceOnUse"
       x1="35.197689"
       y1="46.093544"
       x2="33.665684"
       y2="50.415848" />
    <linearGradient
       inkscape:collect="always"
       xlink:href="#linearGradient3355"
       id="linearGradient8361"
       gradientUnits="userSpaceOnUse"
       x1="38.045502"
       y1="44.886215"
       x2="33.233128"
       y2="51.470303" />
    <linearGradient
       inkscape:collect="always"
       xlink:href="#linearGradient3315"
       id="linearGradient8363"
       gradientUnits="userSpaceOnUse"
       x1="33.358002"
       y1="37.386215"
       x2="33.358002"
       y2="52.806263" />
    <linearGradient
       inkscape:collect="always"
       xlink:href="#linearGradient3307"
       id="linearGradient8365"
       gradientUnits="userSpaceOnUse"
       x1="36.201752"
       y1="37.667465"
       x2="30.034962"
       y2="41.842426" />
  </defs>
  <sodipodi:namedview
     stroke="#ef2929"
     fill="#eeeeec"
     id="base"
     pagecolor="#ffffff"
     bordercolor="#666666"
     borderopacity="0.25490196"
     inkscape:pageopacity="0.0"
     inkscape:pageshadow="2"
     inkscape:zoom="0.99999995"
     inkscape:cx="21.962616"
     inkscape:cy="4.4679296"
     inkscape:current-layer="layer1"
     showgrid="false"
     inkscape:grid-bbox="true"
     inkscape:document-units="px"
     inkscape:showpageshadow="false"
     inkscape:window-width="907"
     inkscape:window-height="680"
     inkscape:window-x="266"
     inkscape:window-y="76"
     showguides="true"
     inkscape:guide-bbox="true"
     showborder="true">
    <inkscape:grid
       type="xygrid"
       id="grid8390"
       visible="true"
       enabled="true"
       empspacing="5" />
  </sodipodi:namedview>
  <metadata
     id="metadata4">
    <rdf:RDF>
      <cc:Work
         rdf:about="">
        <dc:format>image/svg+xml</dc:format>
        <dc:type
           rdf:resource="http://purl.org/dc/dcmitype/StillImage" />
        <dc:creator>
          <cc:Agent>
            <dc:title>Patrick Niklaus</dc:title>
          </cc:Agent>
        </dc:creator>
        <dc:source />
        <cc:license
           rdf:resource="http://creativecommons.org/licenses/GPL/2.0/" />
        <dc:title>SchemeP</dc:title>
        <dc:subject>
          <rdf:Bag />
        </dc:subject>
      </cc:Work>
      <cc:License
         rdf:about="http://creativecommons.org/licenses/GPL/2.0/">
        <cc:permits
           rdf:resource="http://web.resource.org/cc/Reproduction" />
        <cc:permits
           rdf:resource="http://web.resource.org/cc/Distribution" />
        <cc:requires
           rdf:resource="http://web.resource.org/cc/Notice" />
        <cc:permits
           rdf:resource="http://web.resource.org/cc/DerivativeWorks" />
        <cc:requires
           rdf:resource="http://web.resource.org/cc/ShareAlike" />
        <cc:requires
           rdf:resource="http://web.resource.org/cc/SourceCode" />
      </cc:License>
    </rdf:RDF>
  </metadata>
  <g
     id="layer1"
     inkscape:label="Layer 1"
     inkscape:groupmode="layer">
    <g
       id="layer6"
       inkscape:label="Shadow"
       transform="matrix(0.6999997,0,0,0.4444448,-2.8000003,10.111109)">
      <g
         id="g3712"
         style="opacity:0.4"
         transform="matrix(1.052632,0,0,1.285713,-1.263158,-13.42854)">
        <rect
           y="40"
           x="38"
           height="7"
           width="5"
           id="rect2801"
           style="opacity:1;fill:url(#radialGradient8384);fill-opacity:1;stroke:none" />
        <rect
           transform="scale(-1,-1)"
           y="-47"
           x="-10"
           height="7"
           width="5"
           id="rect3696"
           style="opacity:1;fill:url(#radialGradient8386);fill-opacity:1;stroke:none" />
        <rect
           y="40"
           x="10"
           height="7.0000005"
           width="28"
           id="rect3700"
           style="opacity:1;fill:url(#linearGradient8388);fill-opacity:1;stroke:none" />
      </g>
    </g>
    <g
       style="display:inline"
       inkscape:label="Base"
       id="g2392"
       transform="matrix(0.6954076,0,0,0.6954076,-2.7816318,-1.9529845)">
      <path
         style="fill:url(#radialGradient8378);fill-opacity:1;fill-rule:nonzero;stroke:url(#radialGradient8380);stroke-width:1.43800557;stroke-linecap:round;stroke-linejoin:round;marker:none;marker-start:none;marker-mid:none;marker-end:none;stroke-miterlimit:4;stroke-dashoffset:0;stroke-opacity:1;visibility:visible;display:block;overflow:visible"
         d="M 7.3394655,3.5159165 L 36.683694,3.5000015 C 36.683694,3.5000015 42.129128,8.8774026 42.129128,9.5257933 L 42.129128,44.025702 C 42.129128,44.674092 41.600488,45.196081 40.943839,45.196081 L 7.3394655,45.196081 C 6.6828152,45.196081 6.1541761,44.674092 6.1541761,44.025702 L 6.1541761,4.6862967 C 6.1541761,4.0379061 6.6828152,3.5159165 7.3394655,3.5159165 z"
         id="rect15391"
         sodipodi:nodetypes="ccccccccc" />
      <path
         style="fill:none;fill-opacity:1;fill-rule:nonzero;stroke:url(#radialGradient8382);stroke-width:1.43800557;stroke-linecap:round;stroke-linejoin:round;marker:none;marker-start:none;marker-mid:none;marker-end:none;stroke-miterlimit:4;stroke-dashoffset:0;stroke-opacity:1;visibility:visible;display:block;overflow:visible"
         d="M 7.816413,4.9017037 L 36.946752,4.9017037 C 36.946752,4.9017037 40.73018,8.9088807 40.73018,8.9911611 L 40.73018,43.561563 C 40.73018,43.643843 40.663121,43.710084 40.579821,43.710084 L 7.816413,43.710084 C 7.733114,43.710084 7.6660538,43.643843 7.6660538,43.561563 L 7.6660538,5.0502241 C 7.6660538,4.9679438 7.733114,4.9017037 7.816413,4.9017037 z"
         id="rect15660"
         sodipodi:nodetypes="ccccccccc" />
    </g>
    <g
       id="layer5"
       inkscape:label="Text"
       style="display:inline"
       transform="matrix(0.7079131,0,0,0.7055875,-2.8567588,-1.9934845)">
      <g
         id="g1918"
         transform="matrix(0.589097,0,0,0.577622,17.11331,1.395056)">
        <path
           sodipodi:nodetypes="cccc"
           id="path5348"
           d="M 40.985189,13.861445 C 40.256827,12.514817 34.882221,10.130934 32.084635,9.3314083 C 32.254143,10.904354 31.961856,15.649439 31.961856,15.649439 C 34.024356,14.274439 40.204485,13.699331 40.985189,13.861445 z"
           style="opacity:0.35714285;fill:url(#radialGradient8370);fill-opacity:1;fill-rule:evenodd;stroke:none;stroke-width:1.00000024;stroke-linecap:butt;stroke-linejoin:miter;marker:none;marker-start:none;marker-mid:none;marker-end:none;stroke-miterlimit:4;stroke-dasharray:none;stroke-dashoffset:0;stroke-opacity:1;visibility:visible;display:inline;overflow:visible"
           inkscape:r_cx="true"
           inkscape:r_cy="true" />
        <path
           inkscape:r_cy="true"
           inkscape:r_cx="true"
           sodipodi:nodetypes="cccc"
           id="path2210"
           d="M 41.410559,13.739267 C 41.423724,12.324125 35.058025,3.5320142 31.175441,3.6354934 C 32.148479,3.8684884 31.322678,11.096979 29.932958,13.909479 C 32.682958,13.909479 40.446694,11.881093 41.410559,13.739267 z"
           style="opacity:1;fill:url(#radialGradient8372);fill-opacity:1;fill-rule:nonzero;stroke:url(#radialGradient8374);stroke-width:2.42559981;stroke-linecap:butt;stroke-linejoin:round;marker:none;marker-start:none;marker-mid:none;marker-end:none;stroke-miterlimit:4;stroke-dasharray:none;stroke-dashoffset:0;stroke-opacity:1;visibility:visible;display:block;overflow:visible" />
        <path
           inkscape:r_cy="true"
           inkscape:r_cx="true"
           style="opacity:1;fill:none;fill-opacity:1;fill-rule:evenodd;stroke:url(#linearGradient8376);stroke-width:2.42560077;stroke-linecap:butt;stroke-linejoin:miter;marker:none;marker-start:none;marker-mid:none;marker-end:none;stroke-miterlimit:4;stroke-dasharray:none;stroke-dashoffset:0;stroke-opacity:1;visibility:visible;display:inline;overflow:visible"
           d="M 38.148261,10.475482 C 37.59691,9.4558463 35.337567,8.3621279 33.882221,7.4254796 C 33.763354,8.4284252 33.672217,9.2192869 33.206194,11.159463 C 33.206194,11.159463 37.557289,10.352733 38.148261,10.475482 z"
           id="path2247"
           sodipodi:nodetypes="cccc" />
      </g>
    </g>
    <path
       style="fill:url(#radialGradient8355);fill-opacity:1;fill-rule:evenodd;stroke:#888a85;stroke-width:1;stroke-linecap:butt;stroke-linejoin:miter;stroke-miterlimit:4;stroke-opacity:1;stroke-dasharray:none;stroke-dashoffset:0"
       d="m 9.1013517,10.388523 c -0.1422763,0.085285 -0.1824225,0.261211 -0.100038,0.398309 l 1.213375,2.0192135 C 9.9439717,13.090194 9.7186527,13.412623 9.5186357,13.740751 L 7.379913,13.27135 C 7.2234441,13.236793 7.0725454,13.335535 7.0364532,13.497133 l -0.5297489,2.307806 c -0.0360912,0.161598 0.0780221,0.322444 0.2344922,0.357002 l 1.974433,0.428563 c 0.0011307,0.463157 0.0532935,0.930353 0.1750966,1.387733 l -1.9520622,1.170132 c -0.1375217,0.082436 -0.185271,0.256472 -0.1000377,0.39831 l 1.2309597,2.048478 c 0.0852343,0.141839 0.261465,0.181613 0.3989867,0.099178 L 10.405956,20.533 c 0.317864,0.298254 0.674722,0.535405 1.047004,0.745666 l -0.523866,2.284376 c -0.037599,0.161257 0.054886,0.315156 0.211022,0.351167 l 2.297126,0.533669 c 0.156137,0.036012 0.30586,-0.064526 0.343459,-0.225783 l 0.535565,-2.231682 c 0.454039,-0.013522 0.912285,-0.068929 1.35868,-0.19746 l 1.178204,1.960686 c 0.082385,0.137098 0.256708,0.184463 0.398987,0.099177 l 2.054801,-1.231718 c 0.142277,-0.085287 0.182422,-0.261212 0.100039,-0.39831 l -1.195791,-1.98995 c 0.277776,-0.304389 0.500388,-0.645241 0.699031,-0.996197 l 2.150423,0.522095 c 0.15567,0.037958 0.327311,-0.059171 0.366929,-0.21995 l 0.567897,-2.31077 c 0.039616,-0.160777 -0.055351,-0.313208 -0.211022,-0.351168 l -2.159216,-0.536727 c -0.016202,-0.395674 -0.07084,-0.798163 -0.175234,-1.188623 l 1.922708,-1.152539 c 0.137522,-0.082434 0.185271,-0.256469 0.100039,-0.398308 L 20.24178,11.552174 c -0.085233,-0.14184 -0.261464,-0.181614 -0.398986,-0.099178 l -1.908031,1.143739 C 17.597064,12.277759 17.227579,12.007257 16.829122,11.786706 L 17.490829,9.5988264 C 17.5389,9.4403478 17.462589,9.2761806 17.309162,9.230062 L 15.03855,8.5411814 C 14.885121,8.4950628 14.734371,8.5938549 14.686298,8.7523335 l -0.694037,2.2669675 c -0.008321,0.027429 -0.00817,0.057766 -0.008861,0.084922 c -0.404554,0.013193 -0.81609,0.065233 -1.214885,0.170971 L 11.55514,9.2559817 C 11.472755,9.1188822 11.298432,9.0715172 11.156154,9.156803 z m 3.987522,4.37661 c 1.147114,-0.68762 2.410333,-0.307843 2.989517,0.655994 c 0.579184,0.963839 0.320571,2.255853 -0.826543,2.943474 c -1.147115,0.68762 -2.410333,0.307843 -2.989518,-0.655995 c -0.579184,-0.963836 -0.32057,-2.255853 0.826544,-2.943473 z"
       id="path2212" />
    <path
       sodipodi:type="inkscape:offset"
       inkscape:radius="-1.157952"
       inkscape:original="M 60.375 3.125 L 60.375 7.15625 C 60.371912 7.5194123 60.130326 7.8372886 59.78125 7.9375 C 59.169905 8.1067881 58.559537 8.3768222 57.96875 8.6875 C 57.661279 8.8483892 57.285825 8.7983287 57.03125 8.5625 L 54.34375 6 L 51.71875 8.75 L 54.21875 11.09375 C 54.494859 11.351352 54.559366 11.764199 54.375 12.09375 C 53.971871 12.770414 53.623576 13.494497 53.40625 14.25 C 53.306039 14.599076 52.988162 14.840662 52.625 14.84375 L 48.75 14.84375 L 48.75 18.65625 L 52.59375 18.65625 C 52.956912 18.659338 53.274789 18.900924 53.375 19.25 C 53.567737 19.931631 53.884546 20.572703 54.25 21.21875 C 54.426168 21.533968 54.375412 21.927325 54.125 22.1875 L 51.34375 25.09375 L 54 27.6875 L 56.75 24.875 C 57.007602 24.598891 57.420449 24.534384 57.75 24.71875 C 58.429534 25.100218 59.139208 25.429005 59.875 25.625 C 60.224076 25.725211 60.465662 26.043088 60.46875 26.40625 L 60.46875 30.3125 L 64.28125 30.3125 L 64.28125 26.34375 C 64.280089 25.989098 64.507041 25.673886 64.84375 25.5625 C 65.481753 25.370962 66.108157 25.06554 66.71875 24.71875 C 67.033968 24.542582 67.427325 24.593338 67.6875 24.84375 L 70.375 27.5 L 73.0625 24.84375 L 70.375 22.15625 C 70.109267 21.890864 70.057769 21.478881 70.25 21.15625 C 70.571694 20.565843 70.8464 19.957479 71.03125 19.3125 C 71.131461 18.963424 71.449338 18.721838 71.8125 18.71875 L 75.625 18.71875 L 75.625 14.90625 L 71.84375 14.90625 C 71.480588 14.903162 71.162711 14.661576 71.0625 14.3125 C 70.851959 13.5584 70.53788 12.848827 70.15625 12.1875 C 69.971884 11.857949 70.036391 11.445102 70.3125 11.1875 L 73.21875 8.53125 L 70.71875 5.78125 L 67.71875 8.5 C 67.479528 8.8411617 67.022497 8.9486984 66.65625 8.75 C 66.056217 8.415393 65.434546 8.1264586 64.78125 7.9375 C 64.432174 7.8372886 64.190588 7.5194123 64.1875 7.15625 L 64.1875 3.125 L 60.375 3.125 z M 62.21875 12.125 C 65.060709 12.125 67.09375 14.292516 67.09375 16.78125 C 67.093749 19.269985 65.06071 21.437499 62.21875 21.4375 C 59.376789 21.437501 57.34375 19.269985 57.34375 16.78125 C 57.343748 14.292517 59.376789 12.125 62.21875 12.125 z "
       style="fill:none;stroke:#ffffff;stroke-width:1.82841444;stroke-linecap:butt;stroke-linejoin:miter;stroke-miterlimit:4;stroke-opacity:0.36862745;stroke-dasharray:none;stroke-dashoffset:0"
       id="path3195"
       d="m 61.53125,4.28125 l 0,2.875 C 61.523845,8.0271469 60.930867,8.8221837 60.09375,9.0625 C 59.596581,9.2001715 59.044636,9.4323417 58.5,9.71875 c -0.737994,0.386168 -1.638966,0.2535386 -2.25,-0.3125 C 56.239584,9.4063906 56.229166,9.4063906 56.21875,9.40625 l -1.84375,-1.75 l -1,1.0625 L 55,10.25 c 0.661556,0.617214 0.81674,1.616647 0.375,2.40625 C 55.375141,12.666666 55.375141,12.677084 55.375,12.6875 c -0.367324,0.616565 -0.66295,1.246473 -0.84375,1.875 C 54.290934,15.399619 53.495897,15.992595 52.625,16 l -2.71875,0 l 0,1.5 l 2.6875,0 c 0.870897,0.007405 1.665934,0.600381 1.90625,1.4375 c 0.154062,0.544854 0.404973,1.108814 0.75,1.71875 C 55.672517,21.412262 55.569333,22.376002 54.96875,23 L 53,25.0625 l 1,1 l 1.9375,-2 c 0.617214,-0.661556 1.585397,-0.78549 2.375,-0.34375 c 0.627108,0.352038 1.271501,0.620494 1.875,0.78125 c 0.837119,0.240316 1.430095,1.035353 1.4375,1.90625 l 0,2.75 l 1.5,0 l 0,-2.8125 c -0.002786,-0.850895 0.535904,-1.607758 1.34375,-1.875 C 64.479166,24.468609 64.489584,24.468609 64.5,24.46875 c 0.513235,-0.154081 1.087507,-0.426979 1.65625,-0.75 C 66.912262,23.296233 67.876002,23.399417 68.5,24 C 68.500141,24.010416 68.500141,24.020834 68.5,24.03125 l 1.875,1.84375 l 1.0625,-1.03125 l -1.875,-1.875 C 68.925721,22.332803 68.789354,21.335626 69.25,20.5625 C 69.544308,20.022354 69.751979,19.538284 69.90625,19 c 0.240316,-0.837119 1.035353,-1.430095 1.90625,-1.4375 l 2.65625,0 l 0,-1.5 l -2.625,0 C 70.972853,16.055095 70.177816,15.462119 69.9375,14.625 C 69.756575,13.976976 69.496128,13.370226 69.15625,12.78125 C 69.156109,12.770834 69.156109,12.760416 69.15625,12.75 c -0.44174,-0.789603 -0.286556,-1.789036 0.375,-2.40625 l 2.0625,-1.875 L 70.625,7.40625 L 68.5,9.34375 l -0.03125,-0.0625 c -0.601556,0.6662013 -1.570571,0.936424 -2.375,0.5 C 66.093609,9.7708338 66.093609,9.7604162 66.09375,9.75 C 65.543205,9.4429901 65.007741,9.2183971 64.46875,9.0625 C 63.631633,8.8221837 63.038655,8.0271469 63.03125,7.15625 l 0,-2.875 z m 0.6875,6.6875 c 3.430726,0 6.03125,2.693147 6.03125,5.8125 c -1e-06,3.119353 -2.600524,5.812499 -6.03125,5.8125 c -3.430728,1e-06 -6.03125,-2.693147 -6.03125,-5.8125 c -3e-06,-3.119353 2.600522,-5.8125 6.03125,-5.8125 z"
       transform="matrix(0.469669,-0.2815359,0.2813624,0.4682234,-19.770488,26.226025)" />
    <g
       style="display:inline"
       inkscape:label="Base"
       id="g2721"
       transform="translate(73.675798,-57.260339)" />
    <path
       id="path6270"
       d="m 18.427031,16.853849 c -0.416674,0.025019 -0.816095,0.103377 -1.214419,0.243112 l 2.894363,2.897089 l -0.931053,1.843602 l -1.841869,0.911671 l -2.894361,-2.876829 c -0.567074,1.598734 -0.20484,3.441653 1.072735,4.720431 c 1.277575,1.27878 3.118756,1.621094 4.71599,1.053487 l 2.8852343,2.8237465 l 5.282714,0 c 0.067011,-1e-06 0.137181,-0.013952 0.202403,-0.02026 L 22.981094,22.891139 c 0.558412,-1.594805 0.20024,-3.446254 -1.072734,-4.720431 C 20.953621,17.215075 19.677045,16.778792 18.427031,16.853849 z"
       style="opacity:0.2;fill:#000000;fill-opacity:1;fill-rule:nonzero;stroke:#000000;stroke-width:1.00000024;stroke-linecap:round;stroke-linejoin:round;stroke-miterlimit:4;stroke-opacity:1;stroke-dasharray:none;stroke-dashoffset:1.4;marker:none;marker-start:none;marker-mid:none;marker-end:none;visibility:visible;display:inline;overflow:visible"
       sodipodi:nodetypes="ccccccscccccsc" />
    <g
       id="g3199"
       transform="matrix(0.6476891,0,0,0.6482994,-40.028547,-0.6171728)">
      <path
         inkscape:transform-center-y="4.25"
         sodipodi:nodetypes="csccccsccccc"
         id="path3193"
         d="m 32.5,24.1875 c -2.36285,1.124659 -4,3.522947 -4,6.3125 c 0,2.789555 1.637147,5.187838 4,6.3125 l 0,18.537596 l 6.03125,0 l 0,-18.537596 C 40.880361,35.682677 42.5,33.279516 42.5,30.5 c 0,-2.779514 -1.619643,-5.18268 -3.96875,-6.3125 l 0,6.3125 l -3.015625,1 L 32.5,30.5 z"
         style="opacity:1;fill:url(#linearGradient8359);fill-opacity:1;fill-rule:nonzero;stroke:url(#linearGradient8361);stroke-width:1.54322374;stroke-linecap:round;stroke-linejoin:round;stroke-miterlimit:4;stroke-opacity:1;stroke-dasharray:none;stroke-dashoffset:1.4;marker:none;marker-start:none;marker-mid:none;marker-end:none;visibility:visible;display:inline;overflow:visible"
         transform="matrix(0.707107,-0.707107,0.707107,0.707107,44.01958,36.46818)" />
      <path
         sodipodi:nodetypes="cssccccsscccccccc"
         id="path8337"
         d="m 30.954966,27.57112 c -0.680366,1.378389 -0.892103,1.64746 -0.892103,3.355404 c 0,2.400502 1.4257371,3.70759 3.4542051,4.673092 c 0.3473449,0.167478 0.5155949,0.912794 0.5115339,1.298385 L 34.3353,55.384548 l 2.684359,0.1869196 L 36.883288,36.709892 c -0.004061,-0.385591 0.504858,-1.062592 0.852203,-1.23007 c 2.013658,-0.968484 3.235859,-2.774392 3.235859,-5.167625 c 0,-1.697797 -0.740056,-2.213585 -0.893974,-2.876966 l 0.033795,3.508352 c -0.003622,0.42786 -0.928331,1.00974 -1.335317,1.141799 l -2.911938,0.914804 c -0.20292,0.067168 -0.42208,0.067168 -0.625,0 l -3.443358,-1.102511 c -0.406986,-0.132059 -0.854542,-0.850727 -0.858164,-1.278587 z"
         style="fill:none;stroke:url(#linearGradient8363);stroke-width:1.54322374;stroke-linecap:round;stroke-linejoin:miter;stroke-miterlimit:4;stroke-opacity:1;stroke-dashoffset:1.4;marker:none;marker-start:none;marker-mid:none;marker-end:none;visibility:visible;display:inline;overflow:visible"
         transform="matrix(0.707107,-0.707107,0.707107,0.707107,44.01958,36.46818)" />
      <rect
         ry="1.0000045"
         rx="1.0000045"
         y="37.499985"
         x="34.500008"
         height="15.000015"
         width="2.0000091"
         id="rect3197"
         style="opacity:0.4;fill:none;stroke:url(#linearGradient8365);stroke-width:1.54322326;stroke-linecap:round;stroke-linejoin:miter;stroke-miterlimit:4;stroke-opacity:1;stroke-dasharray:none;stroke-dashoffset:1.4;marker:none;marker-start:none;marker-mid:none;marker-end:none;visibility:visible;display:inline;overflow:visible"
         transform="matrix(0.707107,-0.707107,0.707107,0.707107,44.01958,36.46818)" />
    </g>
  </g>
</svg>
