<?xml version="1.0" encoding="UTF-8" standalone="no"?>
<!-- Created with Inkscape (http://www.inkscape.org/) -->
<svg
   xmlns:dc="http://purl.org/dc/elements/1.1/"
   xmlns:cc="http://creativecommons.org/ns#"
   xmlns:rdf="http://www.w3.org/1999/02/22-rdf-syntax-ns#"
   xmlns:svg="http://www.w3.org/2000/svg"
   xmlns="http://www.w3.org/2000/svg"
   xmlns:xlink="http://www.w3.org/1999/xlink"
   xmlns:sodipodi="http://sodipodi.sourceforge.net/DTD/sodipodi-0.dtd"
   xmlns:inkscape="http://www.inkscape.org/namespaces/inkscape"
   width="32"
   height="32"
   id="svg2"
   sodipodi:version="0.32"
   inkscape:version="0.45+devel"
   version="1.0"
   sodipodi:docbase="/home/lapo/Icone/svn/gnome-icon-theme/scalable/categories"
   sodipodi:docname="plugins-image_loading.svg"
   inkscape:export-filename="/home/lapo/Desktop/xubuntu/pngs/wksp.png"
   inkscape:export-xdpi="90"
   inkscape:export-ydpi="90"
   inkscape:output_extension="org.inkscape.output.svg.inkscape"
   sodipodi:modified="true">
  <sodipodi:namedview
     inkscape:window-height="669"
     inkscape:window-width="1051"
     inkscape:pageshadow="2"
     inkscape:pageopacity="0.0"
     guidetolerance="10.0"
     gridtolerance="10.0"
     objecttolerance="10.0"
     borderopacity="1"
     bordercolor="#c8c8c8"
     pagecolor="#ffffff"
     id="base"
     showgrid="false"
     inkscape:showpageshadow="false"
     showborder="true"
     inkscape:zoom="1"
     inkscape:cx="23.781011"
     inkscape:cy="23.607669"
     inkscape:window-x="106"
     inkscape:window-y="49"
     inkscape:current-layer="layer1"
     inkscape:grid-points="true"
     showguides="true"
     inkscape:guide-bbox="true"
     inkscape:snap-global="false">
    <inkscape:grid
       id="GridFromPre046Settings"
       type="xygrid"
       originx="0px"
       originy="0px"
       spacingx="0.5px"
       spacingy="0.5px"
       color="#0000ff"
       empcolor="#0000ff"
       opacity="0.2"
       empopacity="0.4"
       empspacing="2"
       visible="true"
       enabled="true" />
  </sodipodi:namedview>
  <defs
     id="defs4">
    <linearGradient
       inkscape:collect="always"
       id="linearGradient3310">
      <stop
         style="stop-color:#c17d11;stop-opacity:1"
         offset="0"
         id="stop3312" />
      <stop
         style="stop-color:#e9b96e;stop-opacity:1"
         offset="1"
         id="stop3314" />
    </linearGradient>
    <linearGradient
       inkscape:collect="always"
       id="linearGradient3301">
      <stop
         style="stop-color:#ffffff;stop-opacity:1;"
         offset="0"
         id="stop3304" />
      <stop
         style="stop-color:#ffffff;stop-opacity:0;"
         offset="1"
         id="stop3306" />
    </linearGradient>
    <linearGradient
       inkscape:collect="always"
       id="linearGradient3315">
      <stop
         style="stop-color:#000000;stop-opacity:1;"
         offset="0"
         id="stop3317" />
      <stop
         style="stop-color:#000000;stop-opacity:0;"
         offset="1"
         id="stop3319" />
    </linearGradient>
    <linearGradient
       id="linearGradient3299"
       inkscape:collect="always">
      <stop
         id="stop3301"
         offset="0"
         style="stop-color:white;stop-opacity:1;" />
      <stop
         id="stop3303"
         offset="1"
         style="stop-color:#ffffff;stop-opacity:0.52091253" />
    </linearGradient>
    <linearGradient
       inkscape:collect="always"
       id="linearGradient3266">
      <stop
         style="stop-color:#000000;stop-opacity:1;"
         offset="0"
         id="stop3268" />
      <stop
         style="stop-color:#000000;stop-opacity:0;"
         offset="1"
         id="stop3270" />
    </linearGradient>
    <linearGradient
       inkscape:collect="always"
       id="linearGradient3222">
      <stop
         style="stop-color:#eac586;stop-opacity:1;"
         offset="0"
         id="stop3224" />
      <stop
         style="stop-color:#eac586;stop-opacity:0;"
         offset="1"
         id="stop3226" />
    </linearGradient>
    <linearGradient
       inkscape:collect="always"
       id="linearGradient2911">
      <stop
         style="stop-color:#8ae234;stop-opacity:1"
         offset="0"
         id="stop2913" />
      <stop
         style="stop-color:#73d216;stop-opacity:1"
         offset="1"
         id="stop2915" />
    </linearGradient>
    <linearGradient
       inkscape:collect="always"
       id="linearGradient2892">
      <stop
         style="stop-color:black;stop-opacity:1;"
         offset="0"
         id="stop2894" />
      <stop
         style="stop-color:black;stop-opacity:0;"
         offset="1"
         id="stop2896" />
    </linearGradient>
    <linearGradient
       id="linearGradient2880"
       inkscape:collect="always">
      <stop
         id="stop2882"
         offset="0"
         style="stop-color:#729fcf;stop-opacity:1" />
      <stop
         id="stop2884"
         offset="1"
         style="stop-color:#3465a4;stop-opacity:1" />
    </linearGradient>
    <linearGradient
       inkscape:collect="always"
       id="linearGradient2866">
      <stop
         style="stop-color:#ef2929;stop-opacity:1"
         offset="0"
         id="stop2868" />
      <stop
         style="stop-color:#cc0000;stop-opacity:1"
         offset="1"
         id="stop2870" />
    </linearGradient>
    <linearGradient
       id="linearGradient3235"
       inkscape:collect="always">
      <stop
         id="stop3237"
         offset="0"
         style="stop-color:#eeeeec;stop-opacity:1" />
      <stop
         id="stop3239"
         offset="1"
         style="stop-color:#888a85;stop-opacity:1" />
    </linearGradient>
    <linearGradient
       inkscape:collect="always"
       id="linearGradient3201">
      <stop
         style="stop-color:#e7ce79;stop-opacity:1"
         offset="0"
         id="stop3203" />
      <stop
         style="stop-color:#c17d11;stop-opacity:1"
         offset="1"
         id="stop3205" />
    </linearGradient>
    <linearGradient
       id="linearGradient3171"
       inkscape:collect="always">
      <stop
         id="stop3173"
         offset="0"
         style="stop-color:white;stop-opacity:1;" />
      <stop
         id="stop3175"
         offset="1"
         style="stop-color:white;stop-opacity:0.06844106" />
    </linearGradient>
    <linearGradient
       inkscape:collect="always"
       id="linearGradient3126">
      <stop
         style="stop-color:#555753;stop-opacity:1"
         offset="0"
         id="stop3128" />
      <stop
         style="stop-color:#1f2324;stop-opacity:1"
         offset="1"
         id="stop3130" />
    </linearGradient>
    <linearGradient
       inkscape:collect="always"
       id="linearGradient3088">
      <stop
         style="stop-color:white;stop-opacity:1;"
         offset="0"
         id="stop3090" />
      <stop
         style="stop-color:white;stop-opacity:0.34600762"
         offset="1"
         id="stop3092" />
    </linearGradient>
    <radialGradient
       inkscape:collect="always"
       xlink:href="#linearGradient2866"
       id="radialGradient2872"
       cx="32.450172"
       cy="33.609394"
       fx="32.450172"
       fy="33.609394"
       r="5.0383153"
       gradientTransform="matrix(0.4055182,0.4466964,0.3522391,-0.3270118,-1.7029817,16.826781)"
       gradientUnits="userSpaceOnUse" />
    <radialGradient
       inkscape:collect="always"
       xlink:href="#linearGradient2880"
       id="radialGradient2878"
       gradientUnits="userSpaceOnUse"
       gradientTransform="matrix(-0.5456696,0.4510861,-0.4014502,-0.404203,58.256263,12.821887)"
       cx="33.290813"
       cy="36.070057"
       fx="33.290813"
       fy="36.070057"
       r="5.0383153" />
    <radialGradient
       inkscape:collect="always"
       xlink:href="#linearGradient2911"
       id="radialGradient2917"
       cx="23.537704"
       cy="36.025131"
       fx="23.537704"
       fy="36.025131"
       r="4.244812"
       gradientTransform="matrix(0.5990552,0,0,0.6719593,2.5520197,-1.4206536)"
       gradientUnits="userSpaceOnUse" />
    <radialGradient
       inkscape:collect="always"
       xlink:href="#linearGradient2892"
       id="radialGradient3832"
       gradientUnits="userSpaceOnUse"
       cx="6.5"
       cy="23.5"
       fx="6.5"
       fy="23.5"
       r="4.5" />
    <radialGradient
       inkscape:collect="always"
       xlink:href="#linearGradient2892"
       id="radialGradient3834"
       gradientUnits="userSpaceOnUse"
       cx="6.5"
       cy="23.5"
       fx="6.5"
       fy="23.5"
       r="4.5" />
    <linearGradient
       inkscape:collect="always"
       xlink:href="#linearGradient3088"
       id="linearGradient3236"
       gradientUnits="userSpaceOnUse"
       x1="21.424923"
       y1="14.769098"
       x2="16.6399"
       y2="5.5"
       gradientTransform="matrix(0.6479641,0,0,0.6466755,1.7805117,0.2884843)" />
    <linearGradient
       inkscape:collect="always"
       xlink:href="#linearGradient3299"
       id="linearGradient3238"
       gradientUnits="userSpaceOnUse"
       x1="15.299923"
       y1="9.1440983"
       x2="51.568203"
       y2="83.076073"
       gradientTransform="matrix(0.6479641,0,0,0.6466755,1.7805117,0.2884843)" />
    <radialGradient
       inkscape:collect="always"
       xlink:href="#linearGradient3266"
       id="radialGradient3274"
       cx="28.469051"
       cy="23.21442"
       fx="28.469051"
       fy="23.21442"
       r="12.3671"
       gradientTransform="matrix(0.1675436,0.1340677,-0.9393554,1.1739072,43.937672,-7.5867473)"
       gradientUnits="userSpaceOnUse" />
    <radialGradient
       inkscape:collect="always"
       xlink:href="#linearGradient3201"
       id="radialGradient3297"
       cx="28.6576"
       cy="33.986694"
       fx="28.6576"
       fy="33.986694"
       r="18.572308"
       gradientTransform="matrix(3.847355,0,0,3.5494335,-89.43099,-96.973231)"
       gradientUnits="userSpaceOnUse" />
    <radialGradient
       inkscape:collect="always"
       xlink:href="#linearGradient3315"
       id="radialGradient3321"
       cx="10.5625"
       cy="46.0625"
       fx="10.5625"
       fy="46.0625"
       r="8.5625"
       gradientTransform="matrix(1,0,0,0.5328467,0,21.518248)"
       gradientUnits="userSpaceOnUse" />
    <linearGradient
       inkscape:collect="always"
       xlink:href="#linearGradient3171"
       id="linearGradient3237"
       gradientUnits="userSpaceOnUse"
       gradientTransform="matrix(0.416262,0,0,0.4621325,3.3238142,4.6618219)"
       x1="9.3437004"
       y1="38.811657"
       x2="10.924745"
       y2="46.82093" />
    <linearGradient
       inkscape:collect="always"
       xlink:href="#linearGradient3126"
       id="linearGradient3240"
       gradientUnits="userSpaceOnUse"
       gradientTransform="matrix(0.6366644,0,0,0.8125252,0.844444,-8.9053735)"
       x1="10.593056"
       y1="38.581955"
       x2="10.165062"
       y2="43.382187" />
    <linearGradient
       inkscape:collect="always"
       xlink:href="#linearGradient3171"
       id="linearGradient3252"
       gradientUnits="userSpaceOnUse"
       x1="12.186543"
       y1="38.012455"
       x2="12.186543"
       y2="39.53223" />
    <linearGradient
       inkscape:collect="always"
       xlink:href="#linearGradient3222"
       id="linearGradient3270"
       gradientUnits="userSpaceOnUse"
       gradientTransform="matrix(0.5123881,-5.3884331e-2,-0.164753,0.5392295,8.2467612,4.3830162)"
       x1="38.289421"
       y1="5.2539482"
       x2="36.610626"
       y2="7.3314619" />
    <linearGradient
       inkscape:collect="always"
       xlink:href="#linearGradient3235"
       id="linearGradient3276"
       gradientUnits="userSpaceOnUse"
       gradientTransform="matrix(0.5123881,-5.3884331e-2,-0.164753,0.5392295,8.3082884,2.8665684)"
       x1="19.635454"
       y1="29.591417"
       x2="23.529133"
       y2="33.485096" />
    <linearGradient
       inkscape:collect="always"
       xlink:href="#linearGradient3310"
       id="linearGradient3279"
       gradientUnits="userSpaceOnUse"
       gradientTransform="matrix(0.5123881,-5.3884331e-2,-0.164753,0.5392295,8.3082884,2.8665684)"
       x1="33.175713"
       y1="18.657627"
       x2="31.180811"
       y2="17.17729" />
    <linearGradient
       inkscape:collect="always"
       xlink:href="#linearGradient3301"
       id="linearGradient3308"
       x1="18.1875"
       y1="28.625"
       x2="41.4375"
       y2="6.1875"
       gradientUnits="userSpaceOnUse"
       gradientTransform="matrix(0.6366643,0,0,0.6410304,1.481105,-2.4808346e-2)" />
    <linearGradient
       inkscape:collect="always"
       xlink:href="#linearGradient3299"
       id="linearGradient7984"
       gradientUnits="userSpaceOnUse"
       gradientTransform="matrix(0.6479641,0,0,0.6466755,1.7805117,0.2884843)"
       x1="15.299923"
       y1="9.1440983"
       x2="51.568203"
       y2="83.076073" />
    <linearGradient
       inkscape:collect="always"
       xlink:href="#linearGradient3088"
       id="linearGradient7988"
       gradientUnits="userSpaceOnUse"
       gradientTransform="matrix(0.6479641,0,0,0.6466755,1.7805117,0.2884843)"
       x1="21.424923"
       y1="14.769098"
       x2="16.6399"
       y2="5.5" />
    <linearGradient
       inkscape:collect="always"
       xlink:href="#linearGradient3171"
       id="linearGradient7992"
       gradientUnits="userSpaceOnUse"
       gradientTransform="matrix(0.416262,0,0,0.4621325,3.3238142,4.6618219)"
       x1="9.3437004"
       y1="38.811657"
       x2="10.924745"
       y2="46.82093" />
  </defs>
  <sodipodi:namedview
     id="namedview30"
     pagecolor="#ffffff"
     bordercolor="#666666"
     borderopacity="1.0"
     inkscape:pageopacity="0.0"
     inkscape:pageshadow="2"
     inkscape:zoom="1"
     inkscape:cx="10.097903"
     inkscape:cy="38.917761"
     inkscape:document-units="px"
     inkscape:current-layer="layer1"
     showgrid="false"
     inkscape:window-width="965"
     inkscape:window-height="763"
     inkscape:window-x="176"
     inkscape:window-y="103"
     fill="#729fcf"
     stroke="#3465a4"
     inkscape:showpageshadow="false"
     showguides="false"
     inkscape:guide-bbox="true"
     inkscape:grid-points="true"
     inkscape:grid-bbox="false"
     showborder="true">
    <sodipodi:guide
       orientation="vertical"
       position="24.041631"
       id="guide2191" />
    <sodipodi:guide
       orientation="horizontal"
       position="25.986174"
       id="guide2203" />
    <inkscape:grid
       id="GridFromPre046Settings"
       type="xygrid"
       originx="0px"
       originy="0px"
       spacingx="0.5px"
       spacingy="0.5px"
       color="#0000ff"
       empcolor="#0000ff"
       opacity="0.2"
       empopacity="0.4"
       empspacing="2" />
  </sodipodi:namedview>
  <metadata
     id="metadata7">
    <rdf:RDF>
      <cc:Work
         rdf:about="">
        <dc:format>image/svg+xml</dc:format>
        <dc:type
           rdf:resource="http://purl.org/dc/dcmitype/StillImage" />
        <dc:creator>
          <cc:Agent>
            <dc:title>Ulisse Perusin</dc:title>
          </cc:Agent>
        </dc:creator>
        <dc:title>applications-graphics</dc:title>
        <dc:subject>
          <rdf:Bag />
        </dc:subject>
        <cc:license
           rdf:resource="http://creativecommons.org/licenses/GPL/2.0/" />
        <dc:contributor>
          <cc:Agent>
            <dc:title>Lapo Calamandrei</dc:title>
          </cc:Agent>
        </dc:contributor>
      </cc:Work>
      <cc:License
         rdf:about="http://creativecommons.org/licenses/GPL/2.0/">
        <cc:permits
           rdf:resource="http://web.resource.org/cc/Reproduction" />
        <cc:permits
           rdf:resource="http://web.resource.org/cc/Distribution" />
        <cc:requires
           rdf:resource="http://web.resource.org/cc/Notice" />
        <cc:permits
           rdf:resource="http://web.resource.org/cc/DerivativeWorks" />
        <cc:requires
           rdf:resource="http://web.resource.org/cc/ShareAlike" />
        <cc:requires
           rdf:resource="http://web.resource.org/cc/SourceCode" />
      </cc:License>
    </rdf:RDF>
  </metadata>
  <g
     inkscape:label="Livello 1"
     inkscape:groupmode="layer"
     id="layer1">
    <path
       sodipodi:type="arc"
       style="opacity:0.1;fill:url(#radialGradient3321);fill-opacity:1;stroke:none"
       id="path3305"
       sodipodi:cx="10.5625"
       sodipodi:cy="46.0625"
       sodipodi:rx="8.5625"
       sodipodi:ry="4.5625"
       d="m 19.125,46.0625 a 8.5625,4.5625 0 1 1 -17.125,0 a 8.5625,4.5625 0 1 1 17.125,0 z"
       transform="matrix(0.7063722,0,0,0.3512494,0.386693,11.279937)" />
    <g
       id="g3828"
       transform="matrix(0.7999745,0,0,0.7186606,-13.599567,-6.6516906)"
       style="opacity:0.30268196">
      <path
         sodipodi:end="6.2831853"
         sodipodi:start="3.1415927"
         transform="matrix(0,-1,5.888889,0,-94.88889,53)"
         d="M 2,23.5 A 4.5,4.5 0 0 1 11,23.5 L 6.5,23.5 z"
         sodipodi:ry="4.5"
         sodipodi:rx="4.5"
         sodipodi:cy="23.5"
         sodipodi:cx="6.5"
         id="path3814"
         style="opacity:1;fill:url(#radialGradient3832);fill-opacity:1;fill-rule:evenodd;stroke:none"
         sodipodi:type="arc" />
      <path
         sodipodi:end="6.2831853"
         sodipodi:start="3.1415927"
         transform="matrix(0,-1,-3,0,114,53)"
         d="M 2,23.5 A 4.5,4.5 0 0 1 11,23.5 L 6.5,23.5 z"
         sodipodi:ry="4.5"
         sodipodi:rx="4.5"
         sodipodi:cy="23.5"
         sodipodi:cx="6.5"
         id="path3824"
         style="opacity:1;fill:url(#radialGradient3834);fill-opacity:1;fill-rule:evenodd;stroke:none"
         sodipodi:type="arc" />
    </g>
    <path
       style="opacity:1;fill:url(#radialGradient3297);fill-opacity:1;fill-rule:evenodd;stroke:#c17d11;stroke-width:0.99999976;stroke-linecap:butt;stroke-linejoin:miter;stroke-miterlimit:4;stroke-opacity:1;stroke-dasharray:none"
       d="M 16.144281,3.5008579 C 12.409118,3.5501782 7.4050776,4.8371482 7.4896246,8.9696475 C 7.579815,13.377962 12.898104,11.638535 13.10023,13.597085 c 0.32667406,3.165412 -6.4772518,12.795621 3.8597763,14.6836 C 23.860978,29.541096 31.18519,25.213733 30.449331,16.481721 C 29.78756,8.6288309 23.334545,3.7007572 16.880424,3.5008579 c -0.235795,-0.0073031 -0.487133,-0.0032881 -0.736143,0 z m -1.611557,2.5641212 c 1.7571935,0 3.1833217,1.0051355 3.1833217,2.2436061 c 3e-07,1.2384716 -1.4261277,2.2436048 -3.1833217,2.2436048 c -1.7571936,0 -3.1833212,-1.0051355 -3.1833212,-2.2436061 c 0,-1.2384704 1.426128,-2.2436061 3.1833217,-2.2436061 z"
       id="path2193" />
    <path
       sodipodi:type="inkscape:offset"
       inkscape:radius="-0.3432681"
       inkscape:original="M 16.0625 3.84375 C 14.232468 3.8677021 12.100844 4.2151597 10.5 5 C 8.8991552 5.7848404 7.8687219 6.8693134 7.90625 8.6875 C 7.926456 9.6664563 8.1958458 10.188776 8.59375 10.5625 C 8.9916542 10.936223 9.5679821 11.173293 10.21875 11.34375 C 10.869518 11.514209 11.589611 11.598624 12.21875 11.8125 C 12.533319 11.919437 12.825545 12.073173 13.09375 12.3125 C 13.361955 12.551826 13.552298 12.914381 13.59375 13.3125 C 13.704488 14.376106 13.282631 15.576522 12.84375 16.96875 C 12.404869 18.360977 11.926673 19.897535 11.75 21.34375 C 11.573326 22.789966 11.722335 24.104614 12.4375 25.15625 C 13.152665 26.207889 14.478257 27.105971 17 27.5625 C 20.342554 28.167629 23.766751 27.407116 26.25 25.5 C 28.733249 23.592885 30.326999 20.55754 29.96875 16.34375 C 29.323541 8.7546678 23.033403 4.0356923 16.78125 3.84375 C 16.562892 3.8370462 16.31714 3.8404171 16.0625 3.84375 z "
       style="opacity:0.67049806;fill:none;stroke:url(#linearGradient7984);stroke-width:1.01326752;stroke-linecap:butt;stroke-linejoin:miter;stroke-miterlimit:4;stroke-opacity:1"
       id="path7982"
       d="m 16.0625,4.1875 c -1.790082,0.0234292 -3.877597,0.3755524 -5.40625,1.125 C 9.8858009,5.6902253 9.2834495,6.1184433 8.875,6.65625 C 8.4665505,7.1940567 8.2326026,7.8446206 8.25,8.6875 c 0.018959,0.9185413 0.2558273,1.3076125 0.59375,1.625 C 9.1738917,10.622579 9.6891446,10.836723 10.3125,11 c 0.617596,0.16177 1.3526,0.269293 2.03125,0.5 c 0.348153,0.118354 0.662612,0.289325 0.96875,0.5625 c 0.336506,0.300272 0.574562,0.734325 0.625,1.21875 c 0.122791,1.179376 -0.344322,2.395217 -0.78125,3.78125 c -0.438603,1.391345 -0.891319,2.911241 -1.0625,4.3125 c -0.170821,1.398301 -0.027827,2.633781 0.625,3.59375 c 0.655351,0.963683 1.878909,1.803772 4.34375,2.25 c 3.252507,0.588827 6.571436,-0.158881 8.96875,-2 C 28.431225,23.375589 29.974791,20.489301 29.625,16.375 C 28.994726,8.9615881 22.867978,4.3743637 16.78125,4.1875 c -0.206934,-0.0063531 -0.463971,-0.0033347 -0.71875,0 z"
       transform="matrix(0.9825611,0,0,0.9912705,0.4090755,0.3460465)" />
    <path
       sodipodi:type="inkscape:offset"
       inkscape:radius="0.49386048"
       inkscape:original="M 35.59375 8.8125 C 26.637129 15.810387 22.047254 21.103661 19.5 24.5 C 17.827475 26.564266 15.917493 29.727714 14.375 32.65625 C 14.162554 34.597604 14.291968 36.50388 15.09375 38.15625 C 19.00526 35.905485 24.206667 31.000466 25.5 29.5 C 28.41897 26.164035 33.106845 20.263993 38.03125 10.90625 C 37.265184 10.155881 36.450537 9.4387222 35.59375 8.8125 z "
       style="opacity:0.16475094;fill:url(#radialGradient3274);fill-opacity:1;fill-rule:evenodd;stroke:none"
       id="path3260"
       d="M 35.5,8.3125 C 35.417504,8.3345558 35.342135,8.3776237 35.28125,8.4375 c -8.987327,7.021878 -13.61717,12.354142 -16.1875,15.78125 c -1.712114,2.113128 -3.60376,5.271233 -5.15625,8.21875 C 13.907882,32.485625 13.886742,32.538475 13.875,32.59375 c -0.218608,1.997666 -0.076546,4.013442 0.78125,5.78125 C 14.714969,38.498476 14.822246,38.592088 14.952537,38.633544 C 15.082828,38.675 15.224475,38.660592 15.34375,38.59375 C 19.360055,36.282684 24.501651,31.405797 25.875,29.8125 C 28.811442,26.456567 33.524032,20.521343 38.46875,11.125 C 38.55983,10.936574 38.522268,10.711201 38.375,10.5625 C 37.596274,9.7997303 36.756404,9.0504646 35.875,8.40625 C 35.767927,8.3253531 35.632545,8.2915077 35.5,8.3125 z"
       transform="matrix(0.6366643,0,0,0.6410304,1.7596457,5.5320405e-2)" />
    <path
       style="fill:url(#linearGradient3279);fill-opacity:1;fill-rule:evenodd;stroke:#8f5902;stroke-width:0.99999988px;stroke-linecap:butt;stroke-linejoin:round;stroke-opacity:1"
       d="M 17.001456,17.42204 C 19.385629,15.14175 23.553576,10.759912 28.53934,3.821374 C 28.739938,3.597686 28.406027,3.4054 28.221006,3.5008579 C 20.688184,8.8124439 16.899757,12.780575 14.750891,15.049199"
       id="path3096"
       sodipodi:nodetypes="cccc" />
    <path
       style="opacity:0.15;fill:#000000;fill-opacity:1;fill-rule:evenodd;stroke:#000000;stroke-width:0.99999988;stroke-linecap:butt;stroke-linejoin:round;stroke-miterlimit:4;stroke-opacity:1;stroke-dasharray:none"
       d="m 15.128911,14.668586 c 0.94320367,0.380677 1.781347,0.984668 2.2505634,2.372842 C 16.424226,17.964017 12.627764,21.159858 10.260428,22.48722 L 9.5651573,21.516531 c 1.3452191,-1.96813 3.8030968,-5.078225 5.563754,-6.847945 z"
       id="path3316"
       sodipodi:nodetypes="ccccc" />
    <path
       sodipodi:type="inkscape:offset"
       inkscape:radius="0.35355338"
       inkscape:original="M 14.40625 5.125 C 13.388313 5.125 12.46424 5.407276 11.75 5.90625 C 11.03576 6.4052239 10.53125 7.185772 10.53125 8.0625 C 10.53125 8.939228 11.03576 9.6885246 11.75 10.1875 C 12.46424 10.686473 13.388313 10.96875 14.40625 10.96875 C 15.424186 10.96875 16.37951 10.686474 17.09375 10.1875 C 17.80799 9.6885259 18.312501 8.9392293 18.3125 8.0625 C 18.3125 7.1857718 17.80799 6.4052239 17.09375 5.90625 C 16.37951 5.4072761 15.424186 5.1249999 14.40625 5.125 z "
       style="opacity:0.7356322;fill:none;stroke:url(#linearGradient7988);stroke-width:1.01326752;stroke-linecap:butt;stroke-linejoin:miter;stroke-miterlimit:4;stroke-opacity:1"
       id="path7986"
       d="m 14.40625,4.78125 c -1.083298,0 -2.063464,0.298636 -2.84375,0.84375 c -0.792067,0.5533445 -1.375,1.425138 -1.375,2.4375 c 0,1.012362 0.588615,1.8568733 1.375,2.40625 c 0.780285,0.545113 1.760452,0.84375 2.84375,0.84375 c 1.083297,0 2.090745,-0.295863 2.875,-0.84375 c 0.786385,-0.5493754 1.375001,-1.3938864 1.375,-2.40625 c 0,-1.0123622 -0.582933,-1.8841556 -1.375,-2.4375 C 16.496995,5.0771133 15.489547,4.7812499 14.40625,4.78125 z"
       transform="matrix(0.9825611,0,0,0.9912705,0.4090755,0.3460465)" />
    <path
       style="fill:url(#linearGradient3276);fill-opacity:1;fill-rule:evenodd;stroke:#888a85;stroke-width:0.99999988px;stroke-linecap:butt;stroke-linejoin:miter;stroke-opacity:1"
       d="m 14.750891,15.049199 c 0.94320367,0.380677 1.781348,0.984667 2.2505652,2.372841 C 16.046207,18.344629 12.249744,21.540471 9.8824088,22.867831 L 9.187138,21.897142 C 10.532356,19.929013 12.990234,16.818916 14.75089,15.049199 z"
       id="path3098"
       sodipodi:nodetypes="ccccc" />
    <g
       id="g3292"
       transform="matrix(0.6366643,0,0,0.6410304,2.2584536,0.888965)"
       style="opacity:0.13026817">
      <path
         sodipodi:nodetypes="cssssssssc"
         id="path3286"
         d="m 26.824405,37.496498 c -0.981039,0.592836 0.071526,1.273848 0.544949,1.67058 c 0.375468,0.314644 -0.188397,1.835332 -0.860815,1.163308 C 25.733629,39.555928 25.2347,38.478498 24.930767,38.450885 c -1.746924,-0.158722 -0.401869,2.147771 -1.807633,1.640503 c -0.841208,-0.30355 0.205427,-1.577839 -0.917893,-1.968926 c -0.892406,-0.310696 -0.803744,0.644057 -1.31976,0.178846 C 18.456205,36.1112 19.733093,34.20872 20.857329,32.722957 c 1.124252,-1.485787 3.345193,-1.645116 4.992107,-0.327618 c 1.646912,1.317498 2.083698,3.602818 0.974969,5.101159 z"
         style="fill:#000000;fill-opacity:1;fill-rule:evenodd;stroke:#000000;stroke-width:1.565328;stroke-linecap:butt;stroke-linejoin:round;stroke-miterlimit:5;stroke-opacity:1" />
      <path
         sodipodi:nodetypes="cssssssssss"
         id="path3288"
         d="m 35.474535,34.483528 c 0.894548,0 2.39583,0.150996 2.790916,0.615637 c 0.923827,1.086467 1.743502,-0.342638 1.040709,-0.959593 c -0.809917,-0.710995 -1.886381,-1.120206 -1.939258,-1.422238 c -0.303925,-1.735995 2.024552,-0.582617 1.416042,-1.947741 c -0.364131,-0.81689 -1.495114,0.338088 -1.967688,-0.753954 c -0.375429,-0.867558 0.547768,-0.858881 0.056864,-1.33657 c -2.311049,-2.248844 -4.024394,-0.810592 -5.351418,0.439837 c -1.327044,1.250445 -1.286919,3.487787 0.119448,5.026412 c 0.577587,0.631904 0.861404,2.150838 1.598016,2.333503 c 1.056967,0.262105 -0.016214,-1.995293 2.236369,-1.995293 z"
         style="fill:#000000;fill-opacity:1;fill-rule:evenodd;stroke:#000000;stroke-width:1.56532824;stroke-linecap:butt;stroke-linejoin:round;stroke-miterlimit:5;stroke-opacity:1" />
      <path
         sodipodi:nodetypes="cssssssssss"
         id="path3290"
         d="m 37.020609,23.500481 c -0.880935,0 -1.057367,0.607951 -1.47249,0.999606 c -0.329232,0.310617 -1.71697,-0.304448 -1.024872,-0.852636 c 0.797593,-0.631744 0.972799,-1.378012 1.024872,-1.64638 C 35.84742,20.458572 32.892058,21.208472 33.5,20 c 0.442679,-0.879967 2.052495,-0.042131 2.048119,-0.497944 c -0.006748,-0.702831 -0.4201,-1.764624 0.460645,-1.938266 C 37.861929,17.198433 39.995178,18.475962 41,19.5 c 0.960731,0.979104 0.427845,2.691241 -0.140195,3.907468 c -0.347066,0.743101 -1.142342,2.255472 -2.064528,2.073408 c -1.046421,-0.206591 0.443637,-1.980395 -1.774668,-1.980395 z"
         style="fill:#000000;fill-opacity:1;fill-rule:evenodd;stroke:#000000;stroke-width:1.56532824;stroke-linecap:butt;stroke-linejoin:round;stroke-miterlimit:5;stroke-opacity:1" />
    </g>
    <path
       style="opacity:0.68000034;fill:url(#linearGradient3308);fill-opacity:1;fill-rule:evenodd;stroke:none"
       d="M 9.7179497,22.050672 C 13.289678,16.599625 24.792803,6.5353539 27.266011,4.8630476 C 22.004128,10.50556 15.419054,16.812963 9.7179497,22.050672 z"
       id="path3299"
       sodipodi:nodetypes="ccc" />
    <path
       style="fill:url(#radialGradient2917);fill-opacity:1;fill-rule:evenodd;stroke:#4e9a06;stroke-width:0.99999976;stroke-linecap:butt;stroke-linejoin:round;stroke-miterlimit:5;stroke-opacity:1"
       d="m 19.195911,24.652613 c -0.624593,0.380027 0.045538,0.816575 0.34695,1.070892 c 0.239047,0.201696 -0.119946,1.176504 -0.548052,0.745716 C 18.501454,25.97277 18.183803,25.282105 17.990301,25.264403 c -1.112206,-0.101745 -0.255856,1.376787 -1.150858,1.051612 c -0.535566,-0.194583 0.13079,-1.011442 -0.584389,-1.262141 c -0.568162,-0.199165 -0.511714,0.41286 -0.840243,0.114648 c -1.546635,-1.403927 -0.733684,-2.623475 -0.017924,-3.575893 c 0.715771,-0.952436 2.129765,-1.054569 3.178296,-0.210014 c 1.0485309,0.844556 1.3266174,2.309516 0.6207279,3.269999 z"
       id="path1937"
       sodipodi:nodetypes="cssssssssc" />
    <path
       style="opacity:0.77011497;fill:#eeeeec;fill-opacity:1;fill-rule:evenodd;stroke:none"
       d="M 17.855316,21.609963 C 17.006465,21.111164 16.047154,21.640694 15.706574,22.070704 C 15.365994,22.500714 14.903651,23.341522 15.268868,24.134021 C 15.508766,23.371637 15.853628,22.864815 16.203968,22.471349 C 16.554829,22.077296 16.963564,21.653001 17.855316,21.609963 z"
       id="path2836"
       sodipodi:nodetypes="csczc" />
    <path
       style="fill:url(#linearGradient3240);fill-opacity:1;fill-rule:evenodd;stroke:#000000;stroke-width:0.99999976;stroke-linecap:butt;stroke-linejoin:miter;stroke-miterlimit:4;stroke-opacity:1"
       d="m 3.0727659,25.958697 c 2.9881631,0.001161 2.687455,-3.135971 4.1383181,-4.097643 c 1.6812835,-1.114402 3.1546597,0.266464 3.4488178,1.402886 c 0.3711682,1.433943 -0.2654958,3.009961 -2.175489,3.640368 C 6.3428979,27.61113 3.3207295,27.209073 3.0727659,25.958697 z"
       id="path3100"
       sodipodi:nodetypes="csssc" />
    <path
       sodipodi:type="inkscape:offset"
       inkscape:radius="-0.39332816"
       inkscape:original="M 8.65625 22 C 7.8180254 21.758143 6.768117 22.160471 6.25 23.65625 C 5.9063574 24.648329 5.0063388 26.202174 3.6875 26.21875 C 5.6604391 26.224031 9.1643785 27.507012 9.84375 24.15625 C 10.129084 23.115161 9.4944746 22.241857 8.65625 22 z "
       style="opacity:0.29118772;fill:none;stroke:url(#linearGradient7992);stroke-width:1.01326752;stroke-linecap:butt;stroke-linejoin:round;stroke-miterlimit:5;stroke-opacity:1;stroke-dasharray:none"
       id="path7990"
       d="M 8.03125,22.34375 C 7.5098334,22.39441 6.978601,22.760421 6.625,23.78125 c -0.1857941,0.536378 -0.5240614,1.21544 -1,1.78125 c -0.1237138,0.147075 -0.2900299,0.246313 -0.4375,0.375 c 0.6935092,0.079459 1.3941393,0.176411 2.03125,0.125 C 7.7760015,26.017533 8.250541,25.882576 8.625,25.59375 C 8.999459,25.304924 9.3129623,24.830868 9.46875,24.0625 C 9.6999651,23.218873 9.2092188,22.561601 8.5625,22.375 C 8.4018654,22.328651 8.2050555,22.326863 8.03125,22.34375 z"
       transform="matrix(0.9825611,0,0,0.9912705,0.4090755,0.3460465)" />
    <path
       sodipodi:type="arc"
       style="opacity:0.5;fill:url(#linearGradient3252);fill-opacity:1;fill-rule:evenodd;stroke:none"
       id="path3177"
       sodipodi:cx="12.186543"
       sodipodi:cy="38.708176"
       sodipodi:rx="1.138"
       sodipodi:ry="0.91702908"
       d="m 13.324543,38.708176 a 1.138,0.91702908 0 1 1 -2.276,0 a 1.138,0.91702908 0 1 1 2.276,0 z"
       transform="matrix(1.3141258,0,0,1.2967208,-7.6070026,-27.048485)" />
    <path
       style="fill:url(#radialGradient2872);fill-opacity:1;fill-rule:evenodd;stroke:#a40000;stroke-width:0.99999988;stroke-linecap:butt;stroke-linejoin:round;stroke-miterlimit:5;stroke-opacity:1"
       d="m 24.70314,22.721208 c 0.56952681,0 1.5253395,0.096793011 1.7768767,0.39464197 C 27.068186,23.812307 27.590043,22.896209 27.142601,22.50072 c -0.515647,-0.455768 -1.200992,-0.718085 -1.234657,-0.911696 c -0.193498,-1.112826 1.288959,-0.373474 0.901542,-1.248562 C 26.577658,19.816811 25.8576,20.557188 25.556731,19.857156 c -0.239023,-0.556132 0.348743,-0.55057 0.036202,-0.856782 C 24.12157,17.558796 23.030745,18.48076 22.185877,19.282321 c -0.844882,0.801574 -0.819336,2.235779 0.076048,3.222084 c 0.367729,0.405069 0.548425,1.378752 1.017399,1.495847 c 0.672934,0.168016 -0.010323,-1.279044 1.423816,-1.279044 z"
       id="path2852"
       sodipodi:nodetypes="cssssssssss" />
    <path
       style="fill:none;stroke:url(#linearGradient3270);stroke-width:0.99999988px;stroke-linecap:round;stroke-linejoin:miter;stroke-opacity:1"
       d="M 27.909457,4.1418881 L 25.992682,6.0706284"
       id="path3212"
       sodipodi:nodetypes="cc" />
    <path
       style="fill:url(#radialGradient2878);fill-opacity:1;fill-rule:evenodd;stroke:#204a87;stroke-width:0.99999988;stroke-linecap:butt;stroke-linejoin:round;stroke-miterlimit:5;stroke-opacity:1"
       d="m 25.687471,15.680741 c -0.56086024,0 -0.67318839,0.389716 -0.93748203,0.640779 C 24.540378,16.520634 23.656856,16.126359 24.097489,15.774955 c 0.5078,-0.404968 0.619347,-0.883349 0.6525,-1.055379 c 0.190555,-0.98879 -1.691018,-0.508081 -1.303965,-1.282749 c 0.281839,-0.564085 1.306751,-0.027008 1.303965,-0.319196 c -0.004296,-0.450537 -0.267461,-1.131178 0.293276,-1.242489 c 1.1798437,-0.234204 2.5380075,0.584731 3.1777413,1.241171 C 28.83267,13.743948 28.4934,14.84148 28.13175,15.621118 c -0.220965,0.476351 -0.727288,1.445827 -1.314411,1.329118 c -0.666219,-0.132432 0.282447,-1.269495 -1.129868,-1.269495 z"
       id="path2876"
       sodipodi:nodetypes="cssssssssss" />
    <path
       style="opacity:0.77011497;fill:#eeeeec;fill-opacity:1;fill-rule:evenodd;stroke:none"
       d="M 25.674349,12.475282 C 25.12982,12.723587 25.037685,13.436829 25.356018,14.077858 C 25.695454,13.150478 26.629346,13.436829 27.584343,13.436829 C 27.266011,12.795797 26.054009,12.347415 25.674349,12.475282 z"
       id="path2886"
       sodipodi:nodetypes="cccc" />
    <path
       style="opacity:0.77011497;fill:#eeeeec;fill-opacity:1;fill-rule:evenodd;stroke:none"
       d="M 24.890002,19.034386 C 24.041151,18.535587 23.08184,19.065116 22.74126,19.495127 C 22.400679,19.92514 21.93834,20.765944 22.303554,21.558443 C 22.543452,20.796061 22.888315,20.289239 23.238653,19.895771 C 23.589514,19.501718 23.99825,19.077425 24.890002,19.034386 z"
       id="path3280"
       sodipodi:nodetypes="csczc" />
  </g>
</svg>
