<?xml version="1.0" encoding="UTF-8" standalone="no"?>
<!-- Created with Inkscape (http://www.inkscape.org/) -->
<svg
   xmlns:dc="http://purl.org/dc/elements/1.1/"
   xmlns:cc="http://creativecommons.org/ns#"
   xmlns:rdf="http://www.w3.org/1999/02/22-rdf-syntax-ns#"
   xmlns:svg="http://www.w3.org/2000/svg"
   xmlns="http://www.w3.org/2000/svg"
   xmlns:xlink="http://www.w3.org/1999/xlink"
   xmlns:sodipodi="http://sodipodi.sourceforge.net/DTD/sodipodi-0.dtd"
   xmlns:inkscape="http://www.inkscape.org/namespaces/inkscape"
   inkscape:export-ydpi="90.000000"
   inkscape:export-xdpi="90.000000"
   inkscape:export-filename="/home/jimmac/Desktop/wi-fi.png"
   width="32"
   height="32"
   id="svg11300"
   sodipodi:version="0.32"
   inkscape:version="0.46+devel"
   sodipodi:docbase="/home/andrew/pixmaps"
   sodipodi:docname="plugin-bicubic.svg"
   inkscape:output_extension="org.inkscape.output.svg.inkscape"
   version="1.0">
  <defs
     id="defs3">
    <linearGradient
       id="linearGradient3340"
       inkscape:collect="always">
      <stop
         id="stop3342"
         offset="0"
         style="stop-color:#ffffff;stop-opacity:1;" />
      <stop
         id="stop3344"
         offset="1"
         style="stop-color:#ffffff;stop-opacity:0;" />
    </linearGradient>
    <linearGradient
       id="linearGradient2257">
      <stop
         id="stop2259"
         offset="0"
         style="stop-color:#ef2929" />
      <stop
         id="stop2261"
         offset="1"
         style="stop-color:#cc0000" />
    </linearGradient>
    <radialGradient
       inkscape:collect="always"
       xlink:href="#linearGradient2257"
       id="radialGradient10090"
       gradientUnits="userSpaceOnUse"
       gradientTransform="matrix(2.2824307,0,0,2.2889265,-35.354715,-42.437672)"
       cx="22.5"
       cy="28.116049"
       fx="22.5"
       fy="28.116049"
       r="14.537862" />
    <radialGradient
       inkscape:collect="always"
       xlink:href="#linearGradient3340"
       id="radialGradient10094"
       gradientUnits="userSpaceOnUse"
       gradientTransform="matrix(3.9708767,0,0,2.2535676,-77.776307,3.9311154)"
       cx="21.929186"
       cy="-3.2182934"
       fx="21.929186"
       fy="-3.2182934"
       r="13" />
    <radialGradient
       inkscape:collect="always"
       xlink:href="#linearGradient2257"
       id="radialGradient10245"
       gradientUnits="userSpaceOnUse"
       gradientTransform="matrix(2.2824306,0,0,2.3737015,-35.854713,-44.602028)"
       cx="22.5"
       cy="28.116049"
       fx="22.5"
       fy="28.116049"
       r="14.537862" />
    <radialGradient
       inkscape:collect="always"
       xlink:href="#linearGradient2257"
       id="radialGradient8776"
       gradientUnits="userSpaceOnUse"
       gradientTransform="matrix(2.3669651,0,0,2.4584766,-37.756739,-46.766387)"
       cx="22.5"
       cy="28.116049"
       fx="22.5"
       fy="28.116049"
       r="14.537862" />
    <radialGradient
       inkscape:collect="always"
       xlink:href="#linearGradient3340"
       id="radialGradient8782"
       gradientUnits="userSpaceOnUse"
       gradientTransform="matrix(4.132083,0,0,2.3413401,-81.588115,3.9677077)"
       cx="21.929186"
       cy="-3.2182934"
       fx="21.929186"
       fy="-3.2182934"
       r="13" />
  </defs>
  <sodipodi:namedview
     stroke="#ef2929"
     fill="#eeeeec"
     id="base"
     pagecolor="#ffffff"
     bordercolor="#666666"
     borderopacity="0.25490196"
     inkscape:pageopacity="0.0"
     inkscape:pageshadow="2"
     inkscape:zoom="1"
     inkscape:cx="16.173814"
     inkscape:cy="20.917248"
     inkscape:current-layer="layer1"
     showgrid="false"
     inkscape:grid-bbox="true"
     inkscape:document-units="px"
     inkscape:showpageshadow="false"
     inkscape:window-width="1280"
     inkscape:window-height="710"
     inkscape:window-x="0"
     inkscape:window-y="49"
     showguides="true"
     inkscape:guide-bbox="true">
    <inkscape:grid
       type="xygrid"
       id="grid8013" />
  </sodipodi:namedview>
  <metadata
     id="metadata4">
    <rdf:RDF>
      <cc:Work
         rdf:about="">
        <dc:format>image/svg+xml</dc:format>
        <dc:type
           rdf:resource="http://purl.org/dc/dcmitype/StillImage" />
        <dc:creator>
          <cc:Agent>
            <dc:title>Jakub Steiner</dc:title>
          </cc:Agent>
        </dc:creator>
        <dc:source>http://jimmac.musichall.cz</dc:source>
        <cc:license
           rdf:resource="http://creativecommons.org/licenses/by-sa/2.0/" />
        <dc:title>Windows</dc:title>
        <dc:subject>
          <rdf:Bag>
            <rdf:li>window</rdf:li>
            <rdf:li>manager</rdf:li>
            <rdf:li>decoration</rdf:li>
            <rdf:li>behavior</rdf:li>
          </rdf:Bag>
        </dc:subject>
      </cc:Work>
      <cc:License
         rdf:about="http://creativecommons.org/licenses/by-sa/2.0/">
        <cc:permits
           rdf:resource="http://web.resource.org/cc/Reproduction" />
        <cc:permits
           rdf:resource="http://web.resource.org/cc/Distribution" />
        <cc:requires
           rdf:resource="http://web.resource.org/cc/Notice" />
        <cc:requires
           rdf:resource="http://web.resource.org/cc/Attribution" />
        <cc:permits
           rdf:resource="http://web.resource.org/cc/DerivativeWorks" />
        <cc:requires
           rdf:resource="http://web.resource.org/cc/ShareAlike" />
      </cc:License>
    </rdf:RDF>
  </metadata>
  <g
     id="layer1"
     inkscape:label="Layer 1"
     inkscape:groupmode="layer">
    <path
       sodipodi:nodetypes="css"
       style="opacity:0.4;fill:url(#radialGradient8776);fill-opacity:1;fill-rule:evenodd;stroke:#cc0000;stroke-width:0.99999994;stroke-linecap:square;stroke-linejoin:round;stroke-miterlimit:4;stroke-opacity:1;stroke-dasharray:none;stroke-dashoffset:0;marker:none;marker-start:none;marker-mid:none;marker-end:none;visibility:visible;display:inline;overflow:visible"
       d="m 15.499999,1.4999999 c -7.7325836,0 -14,6.4912529 -14,14.5 0,8.0087458 6.2674155,14.5 14,14.5"
       id="path8004" />
    <path
       id="path10243"
       d="M 15.5,1.9999999 C 8.04358,1.9999999 2,8.2674164 2,16 2,23.732582 8.0435794,30 15.5,30"
       style="opacity:0.8;fill:url(#radialGradient10245);fill-opacity:1;fill-rule:evenodd;stroke:#cc0000;stroke-width:0.99999994;stroke-linecap:square;stroke-linejoin:round;stroke-miterlimit:4;stroke-opacity:1;stroke-dasharray:none;stroke-dashoffset:0;marker:none;marker-start:none;marker-mid:none;marker-end:none;visibility:visible;display:inline;overflow:visible"
       sodipodi:nodetypes="css" />
    <path
       style="fill:url(#radialGradient10090);fill-opacity:1;fill-rule:evenodd;stroke:#cc0000;stroke-width:0.99999994000000003;stroke-linecap:square;stroke-linejoin:round;stroke-miterlimit:4;stroke-opacity:1;stroke-dasharray:none;stroke-dashoffset:0;marker:none;marker-start:none;marker-mid:none;marker-end:none;visibility:visible;display:inline;overflow:visible"
       d="M 16 2.5 C 8.5435797 2.5 2.4999999 8.5435805 2.5 16 C 2.5 23.456419 8.5435796 29.5 16 29.5 C 16.33871 29.5 16.667523 29.493289 17 29.46875 L 17 2.53125 C 16.667523 2.5067112 16.33871 2.5 16 2.5 z "
       id="path2525" />
    <path
       sodipodi:nodetypes="css"
       id="path10247"
       d="m 16,2.9999999 c -7.1772832,0 -13,5.822844 -13,13 0,7.1771565 5.8227178,13 13,13"
       style="fill:none;stroke:#f77d7d;stroke-width:1.00000011999999994;stroke-linecap:square;stroke-linejoin:round;stroke-miterlimit:4;stroke-opacity:1;stroke-dasharray:none;stroke-dashoffset:0;marker:none;marker-start:none;marker-mid:none;marker-end:none;visibility:visible;display:inline;overflow:visible;opacity:0.4" />
    <path
       style="fill:#ef2929;fill-opacity:1;stroke:none"
       d="M 23 12 L 23 13 L 22 13 L 21 13 L 20 13 L 20 14 L 19 14 L 18 14 L 17 14 L 17 15 L 16 15 L 16 16 L 16 17 L 16 18 L 16 19 L 16 20 L 16 21 L 16 22 L 16 23 L 16 24 L 16 25 L 16 26 L 16 27 L 16 28 L 17 28 L 18 28 L 19 28 L 20 28 L 20 27 L 21 27 L 22 27 L 22 26 L 23 26 L 24 26 L 24 25 L 25 25 L 25 24 L 26 24 L 26 23 L 26 22 L 27 22 L 27 21 L 27 20 L 27 19 L 28 19 L 28 18 L 28 17 L 28 16 L 28 15 L 28 14 L 28 13 L 27 13 L 27 12 L 26 12 L 25 12 L 24 12 L 23 12 z "
       id="rect8826" />
    <path
       style="fill:#f77d7d;fill-opacity:1;stroke:none"
       d="M 28 13 L 28 14 L 28 15 L 28 16 L 28 17 L 28 18 L 28 19 L 29 19 L 29 18 L 29 17 L 29 16 L 29 15 L 29 14 L 29 13 L 28 13 z M 28 19 L 27 19 L 27 20 L 27 21 L 27 22 L 28 22 L 28 21 L 28 20 L 28 19 z M 27 22 L 26 22 L 26 23 L 26 24 L 27 24 L 27 23 L 27 22 z M 26 24 L 25 24 L 25 25 L 26 25 L 26 24 z M 25 25 L 24 25 L 24 26 L 25 26 L 25 25 z M 24 26 L 23 26 L 22 26 L 22 27 L 23 27 L 24 27 L 24 26 z M 22 27 L 21 27 L 20 27 L 20 28 L 21 28 L 22 28 L 22 27 z M 20 28 L 19 28 L 18 28 L 17 28 L 16 28 L 16 29 L 17 29 L 18 29 L 19 29 L 20 29 L 20 28 z "
       id="rect8814" />
    <path
       style="fill:#cc0000;fill-opacity:1;stroke:none"
       d="M 16 2 L 16 3 L 17 3 L 18 3 L 19 3 L 20 3 L 20 2 L 19 2 L 18 2 L 17 2 L 16 2 z M 20 3 L 20 4 L 21 4 L 22 4 L 22 3 L 21 3 L 20 3 z M 22 4 L 22 5 L 23 5 L 24 5 L 24 4 L 23 4 L 22 4 z M 24 5 L 24 6 L 25 6 L 25 5 L 24 5 z M 25 6 L 25 7 L 26 7 L 26 6 L 25 6 z M 26 7 L 26 8 L 27 8 L 27 7 L 26 7 z M 27 8 L 27 9 L 27 10 L 28 10 L 28 9 L 28 8 L 27 8 z M 28 10 L 28 11 L 28 12 L 28 13 L 29 13 L 29 12 L 29 11 L 29 10 L 28 10 z M 29 13 L 29 14 L 29 15 L 29 16 L 29 17 L 29 18 L 29 19 L 30 19 L 30 18 L 30 17 L 30 16 L 30 15 L 30 14 L 30 13 L 29 13 z M 29 19 L 28 19 L 28 20 L 28 21 L 28 22 L 29 22 L 29 21 L 29 20 L 29 19 z M 28 22 L 27 22 L 27 23 L 27 24 L 28 24 L 28 23 L 28 22 z M 27 24 L 26 24 L 26 25 L 27 25 L 27 24 z M 26 25 L 25 25 L 25 26 L 26 26 L 26 25 z M 25 26 L 24 26 L 24 27 L 25 27 L 25 26 z M 24 27 L 23 27 L 22 27 L 22 28 L 23 28 L 24 28 L 24 27 z M 22 28 L 21 28 L 20 28 L 20 29 L 21 29 L 22 29 L 22 28 z M 20 29 L 19 29 L 18 29 L 17 29 L 16 29 L 16 30 L 17 30 L 18 30 L 19 30 L 20 30 L 20 29 z "
       id="rect9197" />
    <path
       style="fill:#f35d5d;fill-opacity:1;stroke:none"
       d="M 16 4 L 16 5 L 16 6 L 16 7 L 16 8 L 16 9 L 16 10 L 16 11 L 16 12 L 16 13 L 16 14 L 16 15 L 17 15 L 17 14 L 18 14 L 19 14 L 20 14 L 20 13 L 21 13 L 22 13 L 23 13 L 23 12 L 24 12 L 25 12 L 26 12 L 27 12 L 27 11 L 27 10 L 26 10 L 26 9 L 26 8 L 25 8 L 25 7 L 24 7 L 24 6 L 23 6 L 22 6 L 22 5 L 21 5 L 20 5 L 20 4 L 19 4 L 18 4 L 17 4 L 16 4 z "
       id="rect9540" />
    <path
       style="fill:#f99d9d;fill-opacity:1;stroke:none"
       d="M 16 3 L 16 4 L 17 4 L 18 4 L 19 4 L 20 4 L 20 3 L 19 3 L 18 3 L 17 3 L 16 3 z M 20 4 L 20 5 L 21 5 L 22 5 L 22 4 L 21 4 L 20 4 z M 22 5 L 22 6 L 23 6 L 24 6 L 24 5 L 23 5 L 22 5 z M 24 6 L 24 7 L 25 7 L 25 6 L 24 6 z M 25 7 L 25 8 L 26 8 L 26 7 L 25 7 z M 26 8 L 26 9 L 26 10 L 27 10 L 27 9 L 27 8 L 26 8 z M 27 10 L 27 11 L 27 12 L 28 12 L 28 11 L 28 10 L 27 10 z "
       id="rect9552" />
    <path
       style="fill:none;stroke:#f77d7d;stroke-width:1.00000011999999994;stroke-linecap:square;stroke-linejoin:round;stroke-miterlimit:4;stroke-opacity:1;stroke-dasharray:none;stroke-dashoffset:0;marker:none;marker-start:none;marker-mid:none;marker-end:none;visibility:visible;display:inline;overflow:visible;opacity:0.8"
       d="M 15.513864,3.5 C 8.8810251,3.5 3.5,9.0988885 3.5,16 c 0,6.901112 5.381026,12.5 12.013864,12.5"
       id="path2527"
       sodipodi:nodetypes="css" />
    <path
       sodipodi:nodetypes="css"
       id="path8778"
       d="M 15.5,4 C 9.150865,4 4,9.374933 4,16 4,22.625068 9.1508655,28 15.5,28"
       style="fill:none;stroke:#f77d7d;stroke-width:1;stroke-linecap:square;stroke-linejoin:round;stroke-miterlimit:4;stroke-opacity:1;stroke-dasharray:none;stroke-dashoffset:0;marker:none;marker-start:none;marker-mid:none;marker-end:none;visibility:visible;display:inline;overflow:visible" />
    <path
       style="opacity:0.59999999999999998;fill:url(#radialGradient10094);fill-opacity:1;fill-rule:evenodd;stroke:none;display:inline"
       d="m 16,3 c -0.056116,1e-07 -0.1003,-0.0007072 -0.15625,0 C 9.0286417,3.0862045 3.4741315,8.4150968 3.03125,15.125 6.7921805,16.668982 11.127334,15.932039 16.00457,14.643125"
       id="path2529"
       sodipodi:nodetypes="cccs" />
    <rect
       y="-13"
       x="27"
       height="1"
       width="1"
       id="rect9658"
       style="fill:#f77d7d;fill-opacity:1;stroke:none"
       transform="scale(1,-1)" />
    <path
       sodipodi:nodetypes="cccs"
       id="path8780"
       d="M 15.995244,3.000327 C 15.93685,3.0003271 15.890872,2.9995923 15.832651,3.000327 8.7408688,3.089889 2.9608618,8.6263322 2.5,15.597575 6.4136136,17.201692 10.924762,16.436046 16,15.096932"
       style="opacity:0.2;fill:url(#radialGradient8782);fill-opacity:1;fill-rule:evenodd;stroke:none;display:inline" />
  </g>
</svg>
